<?xml version="1.0" encoding="utf-8" standalone="no"?>
<!DOCTYPE svg PUBLIC "-//W3C//DTD SVG 1.1//EN"
  "http://www.w3.org/Graphics/SVG/1.1/DTD/svg11.dtd">
<svg xmlns:xlink="http://www.w3.org/1999/xlink" width="492.478911pt" height="239.04pt" viewBox="0 0 492.478911 239.04" xmlns="http://www.w3.org/2000/svg" version="1.1">
 <metadata>
  <rdf:RDF xmlns:dc="http://purl.org/dc/elements/1.1/" xmlns:cc="http://creativecommons.org/ns#" xmlns:rdf="http://www.w3.org/1999/02/22-rdf-syntax-ns#">
   <cc:Work>
    <dc:type rdf:resource="http://purl.org/dc/dcmitype/StillImage"/>
    <dc:format>image/svg+xml</dc:format>
    <dc:creator>
     <cc:Agent>
      <dc:title>Matplotlib v3.11.2, https://matplotlib.org/</dc:title>
     </cc:Agent>
    </dc:creator>
   </cc:Work>
  </rdf:RDF>
 </metadata>
 <defs>
  <style type="text/css">*{stroke-linejoin: round; stroke-linecap: butt}</style>
 </defs>
 <g id="figure_1">
  <g id="patch_1">
   <path d="M 0 239.04 
L 492.478911 239.04 
L 492.478911 0 
L 0 0 
z
" style="fill: #f6f6f3"/>
  </g>
  <g id="axes_1">
   <g id="patch_2">
    <path d="M 51.357422 195.1 
L 236.334499 195.1 
L 236.334499 13.162 
L 51.357422 13.162 
z
" style="fill: #f6f6f3"/>
   </g>
   <g id="matplotlib.axis_1">
    <g id="xtick_1">
     <g id="line2d_1">
      <defs>
       <path id="mc0e737d4e2" d="M 0 0 
L 0 3.5 
" style="stroke: #6f6f6a; stroke-width: 0.8"/>
      </defs>
      <g>
       <use xlink:href="#mc0e737d4e2" x="56.915285" y="195.1" style="fill: #6f6f6a; stroke: #6f6f6a; stroke-width: 0.8"/>
      </g>
     </g>
     <g id="text_1">
      <!-- 0 -->
      <g style="fill: #4d4d4a" transform="translate(54.274582 211.144) scale(0.095 -0.095)">
       <defs>
        <path id="HelveticaNeue-17" d="M 845 2234 
Q 845 2400 848 2601 
Q 851 2803 880 3004 
Q 909 3206 963 3398 
Q 1018 3590 1123 3734 
Q 1229 3878 1389 3968 
Q 1549 4058 1779 4058 
Q 2010 4058 2170 3968 
Q 2330 3878 2435 3734 
Q 2541 3590 2595 3398 
Q 2650 3206 2678 3004 
Q 2707 2803 2710 2601 
Q 2714 2400 2714 2234 
Q 2714 1978 2698 1661 
Q 2682 1344 2595 1065 
Q 2509 787 2317 595 
Q 2125 403 1779 403 
Q 1434 403 1242 595 
Q 1050 787 963 1065 
Q 877 1344 861 1661 
Q 845 1978 845 2234 
z
M 269 2227 
Q 269 1978 281 1709 
Q 294 1440 345 1184 
Q 397 928 493 701 
Q 589 474 755 301 
Q 922 128 1174 29 
Q 1427 -70 1779 -70 
Q 2138 -70 2387 29 
Q 2637 128 2803 301 
Q 2970 474 3066 701 
Q 3162 928 3213 1184 
Q 3264 1440 3277 1709 
Q 3290 1978 3290 2227 
Q 3290 2477 3277 2745 
Q 3264 3014 3213 3270 
Q 3162 3526 3066 3756 
Q 2970 3987 2803 4160 
Q 2637 4333 2384 4435 
Q 2131 4538 1779 4538 
Q 1427 4538 1174 4435 
Q 922 4333 755 4160 
Q 589 3987 493 3756 
Q 397 3526 345 3270 
Q 294 3014 281 2745 
Q 269 2477 269 2227 
z
" transform="scale(0.015625)"/>
       </defs>
       <use xlink:href="#HelveticaNeue-17"/>
      </g>
     </g>
    </g>
    <g id="xtick_2">
     <g id="line2d_2">
      <g>
       <use xlink:href="#mc0e737d4e2" x="113.919007" y="195.1" style="fill: #6f6f6a; stroke: #6f6f6a; stroke-width: 0.8"/>
      </g>
     </g>
     <g id="text_2">
      <!-- 1000 -->
      <g style="fill: #4d4d4a" transform="translate(103.356194 211.144) scale(0.095 -0.095)">
       <defs>
        <path id="HelveticaNeue-18" d="M 2278 0 
L 2278 4538 
L 1862 4538 
Q 1818 4282 1696 4115 
Q 1574 3949 1398 3853 
Q 1222 3757 1004 3721 
Q 787 3686 557 3686 
L 557 3251 
L 1734 3251 
L 1734 0 
L 2278 0 
z
" transform="scale(0.015625)"/>
       </defs>
       <use xlink:href="#HelveticaNeue-18"/>
       <use xlink:href="#HelveticaNeue-17" transform="translate(55.59375 0)"/>
       <use xlink:href="#HelveticaNeue-17" transform="translate(111.1875 0)"/>
       <use xlink:href="#HelveticaNeue-17" transform="translate(166.78125 0)"/>
      </g>
     </g>
    </g>
    <g id="xtick_3">
     <g id="line2d_3">
      <g>
       <use xlink:href="#mc0e737d4e2" x="170.922728" y="195.1" style="fill: #6f6f6a; stroke: #6f6f6a; stroke-width: 0.8"/>
      </g>
     </g>
     <g id="text_3">
      <!-- 2000 -->
      <g style="fill: #4d4d4a" transform="translate(160.359916 211.144) scale(0.095 -0.095)">
       <defs>
        <path id="HelveticaNeue-19" d="M 282 2931 
L 826 2931 
Q 819 3136 867 3337 
Q 915 3539 1024 3699 
Q 1133 3859 1302 3958 
Q 1472 4058 1709 4058 
Q 1888 4058 2048 4000 
Q 2208 3942 2326 3833 
Q 2445 3725 2515 3574 
Q 2586 3424 2586 3238 
Q 2586 3002 2512 2822 
Q 2438 2643 2294 2489 
Q 2150 2336 1932 2185 
Q 1715 2035 1427 1856 
Q 1190 1715 972 1555 
Q 755 1395 582 1184 
Q 410 973 298 688 
Q 186 403 154 0 
L 3117 0 
L 3117 480 
L 787 480 
Q 826 691 950 854 
Q 1075 1018 1251 1158 
Q 1427 1299 1638 1424 
Q 1850 1549 2061 1677 
Q 2272 1811 2470 1958 
Q 2669 2106 2822 2288 
Q 2976 2470 3069 2700 
Q 3162 2931 3162 3232 
Q 3162 3552 3050 3795 
Q 2938 4038 2746 4201 
Q 2554 4365 2294 4451 
Q 2035 4538 1741 4538 
Q 1382 4538 1100 4416 
Q 819 4294 630 4080 
Q 442 3866 352 3571 
Q 262 3277 282 2931 
z
" transform="scale(0.015625)"/>
       </defs>
       <use xlink:href="#HelveticaNeue-19"/>
       <use xlink:href="#HelveticaNeue-17" transform="translate(55.59375 0)"/>
       <use xlink:href="#HelveticaNeue-17" transform="translate(111.1875 0)"/>
       <use xlink:href="#HelveticaNeue-17" transform="translate(166.78125 0)"/>
      </g>
     </g>
    </g>
    <g id="xtick_4">
     <g id="line2d_4">
      <g>
       <use xlink:href="#mc0e737d4e2" x="227.92645" y="195.1" style="fill: #6f6f6a; stroke: #6f6f6a; stroke-width: 0.8"/>
      </g>
     </g>
     <g id="text_4">
      <!-- 3000 -->
      <g style="fill: #4d4d4a" transform="translate(217.363638 211.144) scale(0.095 -0.095)">
       <defs>
        <path id="HelveticaNeue-1a" d="M 1395 2592 
L 1395 2131 
Q 1549 2150 1722 2150 
Q 1926 2150 2102 2096 
Q 2278 2042 2406 1930 
Q 2534 1818 2611 1654 
Q 2688 1491 2688 1280 
Q 2688 1075 2608 912 
Q 2528 749 2393 637 
Q 2259 525 2080 464 
Q 1901 403 1702 403 
Q 1235 403 992 681 
Q 749 960 736 1402 
L 192 1402 
Q 186 1050 291 774 
Q 397 499 595 310 
Q 794 122 1075 26 
Q 1357 -70 1702 -70 
Q 2022 -70 2307 16 
Q 2592 102 2803 275 
Q 3014 448 3139 707 
Q 3264 966 3264 1306 
Q 3264 1715 3062 2016 
Q 2861 2317 2445 2406 
L 2445 2419 
Q 2714 2541 2893 2777 
Q 3072 3014 3072 3322 
Q 3072 3635 2966 3865 
Q 2861 4096 2675 4243 
Q 2490 4390 2237 4464 
Q 1984 4538 1690 4538 
Q 1350 4538 1091 4429 
Q 832 4320 659 4128 
Q 486 3936 393 3667 
Q 301 3398 288 3072 
L 832 3072 
Q 832 3270 883 3449 
Q 934 3629 1040 3763 
Q 1146 3898 1309 3978 
Q 1472 4058 1690 4058 
Q 2035 4058 2265 3875 
Q 2496 3693 2496 3328 
Q 2496 3149 2425 3008 
Q 2355 2867 2236 2774 
Q 2118 2682 1961 2634 
Q 1805 2586 1632 2586 
L 1517 2586 
Q 1485 2586 1453 2586 
Q 1427 2586 1395 2592 
z
" transform="scale(0.015625)"/>
       </defs>
       <use xlink:href="#HelveticaNeue-1a"/>
       <use xlink:href="#HelveticaNeue-17" transform="translate(55.59375 0)"/>
       <use xlink:href="#HelveticaNeue-17" transform="translate(111.1875 0)"/>
       <use xlink:href="#HelveticaNeue-17" transform="translate(166.78125 0)"/>
      </g>
     </g>
    </g>
    <g id="text_5">
     <!-- step (batch 16) -->
     <g style="fill: #4d4d4a" transform="translate(108.834203 228.1635) scale(0.105 -0.105)">
      <defs>
       <path id="HelveticaNeue-5a" d="M 742 1043 
L 198 1043 
Q 211 736 326 521 
Q 442 307 634 176 
Q 826 45 1075 -12 
Q 1325 -70 1600 -70 
Q 1850 -70 2102 -22 
Q 2355 26 2556 147 
Q 2758 269 2883 467 
Q 3008 666 3008 966 
Q 3008 1203 2915 1363 
Q 2822 1523 2672 1628 
Q 2522 1734 2326 1798 
Q 2131 1862 1926 1907 
Q 1734 1952 1542 1993 
Q 1350 2035 1196 2096 
Q 1043 2157 944 2249 
Q 845 2342 845 2483 
Q 845 2611 909 2691 
Q 973 2771 1075 2819 
Q 1178 2867 1302 2886 
Q 1427 2906 1549 2906 
Q 1683 2906 1814 2877 
Q 1946 2848 2054 2784 
Q 2163 2720 2233 2614 
Q 2304 2509 2317 2349 
L 2861 2349 
Q 2842 2650 2733 2851 
Q 2624 3053 2441 3171 
Q 2259 3290 2022 3338 
Q 1786 3386 1504 3386 
Q 1286 3386 1065 3331 
Q 845 3277 669 3165 
Q 493 3053 381 2873 
Q 269 2694 269 2445 
Q 269 2125 429 1945 
Q 589 1766 829 1667 
Q 1069 1568 1350 1513 
Q 1632 1459 1872 1392 
Q 2112 1325 2272 1216 
Q 2432 1107 2432 896 
Q 2432 742 2355 643 
Q 2278 544 2160 493 
Q 2042 442 1901 422 
Q 1760 403 1632 403 
Q 1466 403 1309 435 
Q 1152 467 1027 540 
Q 902 614 825 739 
Q 749 864 742 1043 
z
" transform="scale(0.015625)"/>
       <path id="HelveticaNeue-5b" d="M 1165 3309 
L 1165 4301 
L 621 4301 
L 621 3309 
L 58 3309 
L 58 2829 
L 621 2829 
L 621 723 
Q 621 493 665 352 
Q 710 211 803 134 
Q 896 58 1046 29 
Q 1197 0 1408 0 
L 1824 0 
L 1824 480 
L 1574 480 
Q 1446 480 1366 489 
Q 1286 499 1241 531 
Q 1197 563 1181 620 
Q 1165 678 1165 774 
L 1165 2829 
L 1824 2829 
L 1824 3309 
L 1165 3309 
z
" transform="scale(0.015625)"/>
       <path id="HelveticaNeue-4c" d="M 2707 1971 
L 806 1971 
Q 819 2163 889 2332 
Q 960 2502 1081 2630 
Q 1203 2758 1372 2832 
Q 1542 2906 1754 2906 
Q 1958 2906 2128 2832 
Q 2298 2758 2422 2633 
Q 2547 2509 2620 2336 
Q 2694 2163 2707 1971 
z
M 3232 1050 
L 2694 1050 
Q 2624 723 2403 563 
Q 2182 403 1837 403 
Q 1568 403 1369 492 
Q 1171 582 1043 732 
Q 915 883 857 1078 
Q 800 1274 806 1491 
L 3283 1491 
Q 3296 1792 3229 2125 
Q 3162 2458 2986 2739 
Q 2810 3021 2518 3203 
Q 2227 3386 1786 3386 
Q 1446 3386 1161 3258 
Q 877 3130 669 2899 
Q 461 2669 345 2355 
Q 230 2042 230 1664 
Q 243 1286 342 966 
Q 442 646 640 416 
Q 838 186 1129 58 
Q 1421 -70 1818 -70 
Q 2381 -70 2752 211 
Q 3123 493 3232 1050 
z
" transform="scale(0.015625)"/>
       <path id="HelveticaNeue-57" d="M 429 3309 
L 429 -1261 
L 973 -1261 
L 973 442 
L 986 442 
Q 1075 294 1206 195 
Q 1338 96 1485 38 
Q 1632 -19 1782 -44 
Q 1933 -70 2054 -70 
Q 2432 -70 2717 64 
Q 3002 198 3190 432 
Q 3379 666 3472 979 
Q 3565 1293 3565 1645 
Q 3565 1997 3469 2310 
Q 3373 2624 3184 2864 
Q 2995 3104 2710 3245 
Q 2426 3386 2042 3386 
Q 1696 3386 1408 3261 
Q 1120 3136 986 2861 
L 973 2861 
L 973 3309 
L 429 3309 
z
M 2989 1683 
Q 2989 1440 2937 1209 
Q 2886 979 2771 800 
Q 2656 621 2467 512 
Q 2278 403 1997 403 
Q 1715 403 1516 508 
Q 1318 614 1193 787 
Q 1069 960 1011 1187 
Q 954 1414 954 1658 
Q 954 1888 1008 2112 
Q 1062 2336 1184 2512 
Q 1306 2688 1498 2797 
Q 1690 2906 1965 2906 
Q 2227 2906 2422 2803 
Q 2618 2701 2742 2528 
Q 2867 2355 2928 2134 
Q 2989 1914 2989 1683 
z
" transform="scale(0.015625)"/>
       <path id="HelveticaNeue-3" transform="scale(0.015625)"/>
       <path id="HelveticaNeue-f" d="M 1306 -1261 
L 1722 -1261 
Q 1267 -525 1072 198 
Q 877 922 877 1728 
Q 877 2515 1069 3232 
Q 1261 3949 1722 4678 
L 1306 4678 
Q 806 4019 553 3251 
Q 301 2483 301 1728 
Q 301 1306 371 922 
Q 442 538 573 173 
Q 704 -192 889 -547 
Q 1075 -902 1306 -1261 
z
" transform="scale(0.015625)"/>
       <path id="HelveticaNeue-49" d="M 429 4570 
L 429 0 
L 973 0 
L 973 442 
L 986 442 
Q 1075 294 1206 195 
Q 1338 96 1485 38 
Q 1632 -19 1782 -44 
Q 1933 -70 2054 -70 
Q 2432 -70 2717 64 
Q 3002 198 3190 432 
Q 3379 666 3472 979 
Q 3565 1293 3565 1645 
Q 3565 1997 3469 2310 
Q 3373 2624 3184 2864 
Q 2995 3104 2710 3245 
Q 2426 3386 2042 3386 
Q 1696 3386 1408 3261 
Q 1120 3136 986 2861 
L 973 2861 
L 973 4570 
L 429 4570 
z
M 2989 1683 
Q 2989 1440 2937 1209 
Q 2886 979 2771 800 
Q 2656 621 2467 512 
Q 2278 403 1997 403 
Q 1715 403 1516 508 
Q 1318 614 1193 787 
Q 1069 960 1011 1187 
Q 954 1414 954 1658 
Q 954 1888 1008 2112 
Q 1062 2336 1184 2512 
Q 1306 2688 1498 2797 
Q 1690 2906 1965 2906 
Q 2227 2906 2422 2803 
Q 2618 2701 2742 2528 
Q 2867 2355 2928 2134 
Q 2989 1914 2989 1683 
z
" transform="scale(0.015625)"/>
       <path id="HelveticaNeue-48" d="M 3341 13 
Q 3200 -70 2950 -70 
Q 2739 -70 2614 48 
Q 2490 166 2490 435 
Q 2266 166 1968 48 
Q 1670 -70 1325 -70 
Q 1101 -70 899 -19 
Q 698 32 550 141 
Q 403 250 316 426 
Q 230 602 230 851 
Q 230 1133 326 1312 
Q 422 1491 579 1603 
Q 736 1715 937 1772 
Q 1139 1830 1350 1869 
Q 1574 1914 1776 1936 
Q 1978 1958 2131 2000 
Q 2285 2042 2374 2122 
Q 2464 2202 2464 2355 
Q 2464 2534 2397 2643 
Q 2330 2752 2224 2809 
Q 2118 2867 1987 2886 
Q 1856 2906 1728 2906 
Q 1382 2906 1152 2774 
Q 922 2643 902 2278 
L 358 2278 
Q 371 2586 486 2797 
Q 602 3008 794 3139 
Q 986 3270 1232 3328 
Q 1478 3386 1760 3386 
Q 1984 3386 2205 3354 
Q 2426 3322 2605 3222 
Q 2784 3123 2893 2944 
Q 3002 2765 3002 2477 
L 3002 774 
Q 3002 582 3024 492 
Q 3046 403 3174 403 
Q 3245 403 3341 435 
L 3341 13 
z
M 2458 1709 
Q 2355 1632 2188 1597 
Q 2022 1562 1840 1539 
Q 1658 1517 1472 1488 
Q 1286 1459 1139 1395 
Q 992 1331 899 1212 
Q 806 1094 806 890 
Q 806 755 860 662 
Q 915 570 1001 512 
Q 1088 454 1203 428 
Q 1318 403 1446 403 
Q 1715 403 1907 476 
Q 2099 550 2220 662 
Q 2342 774 2400 905 
Q 2458 1037 2458 1152 
L 2458 1709 
z
" transform="scale(0.015625)"/>
       <path id="HelveticaNeue-4a" d="M 2656 2246 
L 3219 2246 
Q 3187 2541 3065 2755 
Q 2944 2970 2755 3110 
Q 2566 3251 2320 3318 
Q 2074 3386 1792 3386 
Q 1402 3386 1107 3248 
Q 813 3110 617 2870 
Q 422 2630 326 2307 
Q 230 1984 230 1613 
Q 230 1242 329 931 
Q 429 621 624 397 
Q 819 173 1110 51 
Q 1402 -70 1779 -70 
Q 2413 -70 2781 262 
Q 3149 595 3238 1210 
L 2682 1210 
Q 2630 826 2403 614 
Q 2176 403 1773 403 
Q 1517 403 1331 505 
Q 1146 608 1030 777 
Q 915 947 860 1164 
Q 806 1382 806 1613 
Q 806 1862 857 2096 
Q 909 2330 1027 2509 
Q 1146 2688 1344 2797 
Q 1542 2906 1837 2906 
Q 2182 2906 2387 2733 
Q 2592 2560 2656 2246 
z
" transform="scale(0.015625)"/>
       <path id="HelveticaNeue-4f" d="M 410 4570 
L 410 0 
L 954 0 
L 954 1869 
Q 954 2093 1014 2281 
Q 1075 2470 1196 2611 
Q 1318 2752 1500 2829 
Q 1683 2906 1933 2906 
Q 2246 2906 2425 2726 
Q 2605 2547 2605 2240 
L 2605 0 
L 3149 0 
L 3149 2176 
Q 3149 2445 3094 2665 
Q 3040 2886 2905 3046 
Q 2771 3206 2553 3296 
Q 2336 3386 2010 3386 
Q 1862 3386 1705 3354 
Q 1549 3322 1405 3254 
Q 1261 3187 1145 3081 
Q 1030 2976 966 2822 
L 954 2822 
L 954 4570 
L 410 4570 
z
" transform="scale(0.015625)"/>
       <path id="HelveticaNeue-1d" d="M 2650 3379 
L 3194 3379 
Q 3142 3942 2809 4240 
Q 2477 4538 1914 4538 
Q 1427 4538 1107 4333 
Q 787 4128 595 3789 
Q 403 3450 323 3011 
Q 243 2573 243 2106 
Q 243 1747 297 1363 
Q 352 979 518 659 
Q 685 339 992 134 
Q 1299 -70 1805 -70 
Q 2234 -70 2525 74 
Q 2816 218 2992 438 
Q 3168 659 3245 928 
Q 3322 1197 3322 1446 
Q 3322 1760 3226 2029 
Q 3130 2298 2954 2496 
Q 2778 2694 2518 2806 
Q 2259 2918 1933 2918 
Q 1562 2918 1277 2777 
Q 992 2637 800 2323 
L 787 2336 
Q 794 2598 838 2899 
Q 883 3200 1001 3459 
Q 1120 3718 1331 3888 
Q 1542 4058 1888 4058 
Q 2214 4058 2412 3872 
Q 2611 3686 2650 3379 
z
M 1830 2438 
Q 2061 2438 2233 2355 
Q 2406 2272 2521 2134 
Q 2637 1997 2691 1808 
Q 2746 1619 2746 1408 
Q 2746 1210 2685 1027 
Q 2624 845 2509 704 
Q 2394 563 2224 483 
Q 2054 403 1830 403 
Q 1606 403 1430 483 
Q 1254 563 1136 697 
Q 1018 832 954 1017 
Q 890 1203 890 1414 
Q 890 1626 950 1814 
Q 1011 2003 1132 2140 
Q 1254 2278 1427 2358 
Q 1600 2438 1830 2438 
z
" transform="scale(0.015625)"/>
       <path id="HelveticaNeue-10" d="M -58 -1261 
L 352 -1261 
Q 851 -602 1104 163 
Q 1357 928 1357 1683 
Q 1357 2106 1286 2490 
Q 1216 2874 1085 3242 
Q 954 3610 768 3965 
Q 582 4320 352 4678 
L -58 4678 
Q 390 3942 585 3216 
Q 781 2490 781 1683 
Q 781 902 589 182 
Q 397 -538 -58 -1261 
z
" transform="scale(0.015625)"/>
      </defs>
      <use xlink:href="#HelveticaNeue-5a"/>
      <use xlink:href="#HelveticaNeue-5b" transform="translate(50 0)"/>
      <use xlink:href="#HelveticaNeue-4c" transform="translate(81.5 0)"/>
      <use xlink:href="#HelveticaNeue-57" transform="translate(135.203125 0)"/>
      <use xlink:href="#HelveticaNeue-3" transform="translate(194.5 0)"/>
      <use xlink:href="#HelveticaNeue-f" transform="translate(222.296875 0)"/>
      <use xlink:href="#HelveticaNeue-49" transform="translate(248.203125 0)"/>
      <use xlink:href="#HelveticaNeue-48" transform="translate(307.5 0)"/>
      <use xlink:href="#HelveticaNeue-5b" transform="translate(361.203125 0)"/>
      <use xlink:href="#HelveticaNeue-4a" transform="translate(392.703125 0)"/>
      <use xlink:href="#HelveticaNeue-4f" transform="translate(446.40625 0)"/>
      <use xlink:href="#HelveticaNeue-3" transform="translate(502 0)"/>
      <use xlink:href="#HelveticaNeue-18" transform="translate(529.796875 0)"/>
      <use xlink:href="#HelveticaNeue-1d" transform="translate(585.390625 0)"/>
      <use xlink:href="#HelveticaNeue-10" transform="translate(640.984375 0)"/>
     </g>
    </g>
   </g>
   <g id="matplotlib.axis_2">
    <g id="ytick_1">
     <g id="line2d_5">
      <path d="M 51.357422 188.652318 
L 236.334499 188.652318 
" clip-path="url(#p80ddb0246e)" style="fill: none; stroke: #e9e9e4; stroke-width: 0.8; stroke-linecap: round"/>
     </g>
     <g id="line2d_6">
      <defs>
       <path id="ma2979b2ba1" d="M 0 0 
L -3.5 0 
" style="stroke: #6f6f6a; stroke-width: 0.8"/>
      </defs>
      <g>
       <use xlink:href="#ma2979b2ba1" x="51.357422" y="188.652318" style="fill: #6f6f6a; stroke: #6f6f6a; stroke-width: 0.8"/>
      </g>
     </g>
     <g id="text_6">
      <!-- 0.03 -->
      <g style="fill: #4d4d4a" transform="translate(25.8725 193.174318) scale(0.095 -0.095)">
       <defs>
        <path id="HelveticaNeue-15" d="M 531 710 
L 531 0 
L 1242 0 
L 1242 710 
L 531 710 
z
" transform="scale(0.015625)"/>
       </defs>
       <use xlink:href="#HelveticaNeue-17"/>
       <use xlink:href="#HelveticaNeue-15" transform="translate(55.59375 0)"/>
       <use xlink:href="#HelveticaNeue-17" transform="translate(83.390625 0)"/>
       <use xlink:href="#HelveticaNeue-1a" transform="translate(138.984375 0)"/>
      </g>
     </g>
    </g>
    <g id="ytick_2">
     <g id="line2d_7">
      <path d="M 51.357422 128.39791 
L 236.334499 128.39791 
" clip-path="url(#p80ddb0246e)" style="fill: none; stroke: #e9e9e4; stroke-width: 0.8; stroke-linecap: round"/>
     </g>
     <g id="line2d_8">
      <g>
       <use xlink:href="#ma2979b2ba1" x="51.357422" y="128.39791" style="fill: #6f6f6a; stroke: #6f6f6a; stroke-width: 0.8"/>
      </g>
     </g>
     <g id="text_7">
      <!-- 0.1 -->
      <g style="fill: #4d4d4a" transform="translate(31.153906 132.91991) scale(0.095 -0.095)">
       <use xlink:href="#HelveticaNeue-17"/>
       <use xlink:href="#HelveticaNeue-15" transform="translate(55.59375 0)"/>
       <use xlink:href="#HelveticaNeue-18" transform="translate(83.390625 0)"/>
      </g>
     </g>
    </g>
    <g id="ytick_3">
     <g id="line2d_9">
      <path d="M 51.357422 73.416408 
L 236.334499 73.416408 
" clip-path="url(#p80ddb0246e)" style="fill: none; stroke: #e9e9e4; stroke-width: 0.8; stroke-linecap: round"/>
     </g>
     <g id="line2d_10">
      <g>
       <use xlink:href="#ma2979b2ba1" x="51.357422" y="73.416408" style="fill: #6f6f6a; stroke: #6f6f6a; stroke-width: 0.8"/>
      </g>
     </g>
     <g id="text_8">
      <!-- 0.3 -->
      <g style="fill: #4d4d4a" transform="translate(31.153906 77.938408) scale(0.095 -0.095)">
       <use xlink:href="#HelveticaNeue-17"/>
       <use xlink:href="#HelveticaNeue-15" transform="translate(55.59375 0)"/>
       <use xlink:href="#HelveticaNeue-1a" transform="translate(83.390625 0)"/>
      </g>
     </g>
    </g>
    <g id="ytick_4">
     <g id="line2d_11">
      <path d="M 51.357422 13.162 
L 236.334499 13.162 
" clip-path="url(#p80ddb0246e)" style="fill: none; stroke: #e9e9e4; stroke-width: 0.8; stroke-linecap: round"/>
     </g>
     <g id="line2d_12">
      <g>
       <use xlink:href="#ma2979b2ba1" x="51.357422" y="13.162" style="fill: #6f6f6a; stroke: #6f6f6a; stroke-width: 0.8"/>
      </g>
     </g>
     <g id="text_9">
      <!-- 1 -->
      <g style="fill: #4d4d4a" transform="translate(39.076016 17.684) scale(0.095 -0.095)">
       <use xlink:href="#HelveticaNeue-18"/>
      </g>
     </g>
    </g>
    <g id="text_10">
     <!-- training loss, 50-step mean -->
     <g style="fill: #4d4d4a" transform="translate(18.636 167.928344) rotate(-90) scale(0.105 -0.105)">
      <defs>
       <path id="HelveticaNeue-59" d="M 390 3309 
L 390 0 
L 934 0 
L 934 1472 
Q 934 1792 998 2038 
Q 1062 2285 1203 2457 
Q 1344 2630 1574 2720 
Q 1805 2810 2131 2810 
L 2131 3386 
Q 1690 3398 1402 3206 
Q 1114 3014 915 2611 
L 902 2611 
L 902 3309 
L 390 3309 
z
" transform="scale(0.015625)"/>
       <path id="HelveticaNeue-50" d="M 986 3904 
L 986 4570 
L 442 4570 
L 442 3904 
L 986 3904 
z
M 442 3309 
L 442 0 
L 986 0 
L 986 3309 
L 442 3309 
z
" transform="scale(0.015625)"/>
       <path id="HelveticaNeue-55" d="M 410 3309 
L 410 0 
L 954 0 
L 954 1869 
Q 954 2093 1014 2281 
Q 1075 2470 1196 2611 
Q 1318 2752 1500 2829 
Q 1683 2906 1933 2906 
Q 2246 2906 2425 2726 
Q 2605 2547 2605 2240 
L 2605 0 
L 3149 0 
L 3149 2176 
Q 3149 2445 3094 2665 
Q 3040 2886 2905 3046 
Q 2771 3206 2553 3296 
Q 2336 3386 2010 3386 
Q 1274 3386 934 2784 
L 922 2784 
L 922 3309 
L 410 3309 
z
" transform="scale(0.015625)"/>
       <path id="HelveticaNeue-4e" d="M 3264 282 
L 3264 3309 
L 2752 3309 
L 2752 2835 
L 2746 2835 
Q 2598 3110 2336 3248 
Q 2074 3386 1760 3386 
Q 1331 3386 1036 3222 
Q 742 3059 563 2806 
Q 384 2554 307 2243 
Q 230 1933 230 1638 
Q 230 1299 323 995 
Q 416 691 601 464 
Q 787 237 1062 102 
Q 1338 -32 1709 -32 
Q 2029 -32 2313 112 
Q 2598 256 2739 563 
L 2752 563 
L 2752 346 
Q 2752 70 2697 -160 
Q 2643 -390 2521 -553 
Q 2400 -717 2214 -809 
Q 2029 -902 1760 -902 
Q 1626 -902 1478 -873 
Q 1331 -845 1206 -781 
Q 1082 -717 995 -614 
Q 909 -512 902 -365 
L 358 -365 
Q 371 -634 499 -819 
Q 627 -1005 822 -1120 
Q 1018 -1235 1258 -1286 
Q 1498 -1338 1728 -1338 
Q 2522 -1338 2893 -934 
Q 3264 -531 3264 282 
z
M 1741 442 
Q 1472 442 1293 554 
Q 1114 666 1005 848 
Q 896 1030 851 1254 
Q 806 1478 806 1702 
Q 806 1939 860 2156 
Q 915 2374 1033 2540 
Q 1152 2707 1337 2806 
Q 1523 2906 1786 2906 
Q 2042 2906 2221 2803 
Q 2400 2701 2512 2531 
Q 2624 2362 2675 2150 
Q 2726 1939 2726 1722 
Q 2726 1491 2672 1260 
Q 2618 1030 2502 848 
Q 2387 666 2198 554 
Q 2010 442 1741 442 
z
" transform="scale(0.015625)"/>
       <path id="HelveticaNeue-53" d="M 442 4570 
L 442 0 
L 986 0 
L 986 4570 
L 442 4570 
z
" transform="scale(0.015625)"/>
       <path id="HelveticaNeue-56" d="M 806 1651 
Q 806 1952 886 2185 
Q 966 2419 1107 2579 
Q 1248 2739 1437 2822 
Q 1626 2906 1837 2906 
Q 2048 2906 2237 2822 
Q 2426 2739 2566 2579 
Q 2707 2419 2787 2185 
Q 2867 1952 2867 1651 
Q 2867 1350 2787 1116 
Q 2707 883 2566 726 
Q 2426 570 2237 486 
Q 2048 403 1837 403 
Q 1626 403 1437 486 
Q 1248 570 1107 726 
Q 966 883 886 1116 
Q 806 1350 806 1651 
z
M 230 1651 
Q 230 1286 332 972 
Q 435 659 640 425 
Q 845 192 1145 61 
Q 1446 -70 1837 -70 
Q 2234 -70 2531 61 
Q 2829 192 3033 425 
Q 3238 659 3340 972 
Q 3443 1286 3443 1651 
Q 3443 2016 3340 2333 
Q 3238 2650 3033 2883 
Q 2829 3117 2531 3251 
Q 2234 3386 1837 3386 
Q 1446 3386 1145 3251 
Q 845 3117 640 2883 
Q 435 2650 332 2333 
Q 230 2016 230 1651 
z
" transform="scale(0.015625)"/>
       <path id="HelveticaNeue-13" d="M 531 710 
L 531 0 
L 909 0 
Q 915 -77 899 -166 
Q 883 -256 838 -342 
Q 794 -429 720 -502 
Q 646 -576 538 -614 
L 538 -934 
Q 909 -826 1075 -563 
Q 1242 -301 1242 64 
L 1242 710 
L 531 710 
z
" transform="scale(0.015625)"/>
       <path id="HelveticaNeue-1c" d="M 3008 3981 
L 3008 4461 
L 768 4461 
L 346 2106 
L 813 2080 
Q 973 2272 1181 2390 
Q 1389 2509 1658 2509 
Q 1888 2509 2077 2432 
Q 2266 2355 2400 2217 
Q 2534 2080 2608 1891 
Q 2682 1702 2682 1478 
Q 2682 1210 2605 1008 
Q 2528 806 2397 672 
Q 2266 538 2090 470 
Q 1914 403 1722 403 
Q 1517 403 1347 464 
Q 1178 525 1053 637 
Q 928 749 854 899 
Q 781 1050 768 1222 
L 224 1222 
Q 230 915 345 672 
Q 461 429 659 265 
Q 858 102 1117 16 
Q 1376 -70 1670 -70 
Q 2067 -70 2364 54 
Q 2662 179 2860 390 
Q 3059 602 3158 874 
Q 3258 1146 3258 1434 
Q 3258 1824 3142 2115 
Q 3027 2406 2828 2601 
Q 2630 2797 2361 2893 
Q 2093 2989 1792 2989 
Q 1562 2989 1328 2909 
Q 1094 2829 947 2662 
L 934 2675 
L 1178 3981 
L 3008 3981 
z
" transform="scale(0.015625)"/>
       <path id="HelveticaNeue-14" d="M 320 2035 
L 320 1523 
L 2170 1523 
L 2170 2035 
L 320 2035 
z
" transform="scale(0.015625)"/>
       <path id="HelveticaNeue-54" d="M 410 3309 
L 410 0 
L 954 0 
L 954 2061 
Q 954 2157 1002 2301 
Q 1050 2445 1155 2579 
Q 1261 2714 1430 2810 
Q 1600 2906 1837 2906 
Q 2022 2906 2140 2851 
Q 2259 2797 2329 2697 
Q 2400 2598 2429 2464 
Q 2458 2330 2458 2170 
L 2458 0 
L 3002 0 
L 3002 2061 
Q 3002 2445 3232 2675 
Q 3462 2906 3866 2906 
Q 4064 2906 4189 2848 
Q 4314 2790 4384 2691 
Q 4454 2592 4480 2457 
Q 4506 2323 4506 2170 
L 4506 0 
L 5050 0 
L 5050 2426 
Q 5050 2682 4970 2864 
Q 4890 3046 4746 3161 
Q 4602 3277 4400 3331 
Q 4198 3386 3949 3386 
Q 3622 3386 3350 3238 
Q 3078 3091 2912 2822 
Q 2810 3130 2560 3258 
Q 2310 3386 2003 3386 
Q 1306 3386 934 2822 
L 922 2822 
L 922 3309 
L 410 3309 
z
" transform="scale(0.015625)"/>
      </defs>
      <use xlink:href="#HelveticaNeue-5b"/>
      <use xlink:href="#HelveticaNeue-59" transform="translate(31.5 0)"/>
      <use xlink:href="#HelveticaNeue-48" transform="translate(64.796875 0)"/>
      <use xlink:href="#HelveticaNeue-50" transform="translate(118.5 0)"/>
      <use xlink:href="#HelveticaNeue-55" transform="translate(140.703125 0)"/>
      <use xlink:href="#HelveticaNeue-50" transform="translate(196.296875 0)"/>
      <use xlink:href="#HelveticaNeue-55" transform="translate(218.5 0)"/>
      <use xlink:href="#HelveticaNeue-4e" transform="translate(274.09375 0)"/>
      <use xlink:href="#HelveticaNeue-3" transform="translate(331.5 0)"/>
      <use xlink:href="#HelveticaNeue-53" transform="translate(359.296875 0)"/>
      <use xlink:href="#HelveticaNeue-56" transform="translate(381.5 0)"/>
      <use xlink:href="#HelveticaNeue-5a" transform="translate(438.90625 0)"/>
      <use xlink:href="#HelveticaNeue-5a" transform="translate(488.90625 0)"/>
      <use xlink:href="#HelveticaNeue-13" transform="translate(538.90625 0)"/>
      <use xlink:href="#HelveticaNeue-3" transform="translate(566.703125 0)"/>
      <use xlink:href="#HelveticaNeue-1c" transform="translate(594.5 0)"/>
      <use xlink:href="#HelveticaNeue-17" transform="translate(650.09375 0)"/>
      <use xlink:href="#HelveticaNeue-14" transform="translate(705.6875 0)"/>
      <use xlink:href="#HelveticaNeue-5a" transform="translate(744.59375 0)"/>
      <use xlink:href="#HelveticaNeue-5b" transform="translate(794.59375 0)"/>
      <use xlink:href="#HelveticaNeue-4c" transform="translate(826.09375 0)"/>
      <use xlink:href="#HelveticaNeue-57" transform="translate(879.796875 0)"/>
      <use xlink:href="#HelveticaNeue-3" transform="translate(939.09375 0)"/>
      <use xlink:href="#HelveticaNeue-54" transform="translate(966.890625 0)"/>
      <use xlink:href="#HelveticaNeue-4c" transform="translate(1052.1875 0)"/>
      <use xlink:href="#HelveticaNeue-48" transform="translate(1105.890625 0)"/>
      <use xlink:href="#HelveticaNeue-55" transform="translate(1159.59375 0)"/>
     </g>
    </g>
   </g>
   <g id="line2d_13">
    <path d="M 59.765471 35.430322 
L 59.879478 39.635388 
L 59.936482 39.523208 
L 59.993486 38.582434 
L 60.050489 39.353559 
L 60.107493 39.079372 
L 60.278504 40.804926 
L 60.392512 40.084976 
L 60.449516 40.30958 
L 60.563523 40.725919 
L 60.734534 42.253189 
L 60.848542 41.022032 
L 60.905545 41.187437 
L 61.076556 40.875768 
L 61.361575 43.402355 
L 61.646594 45.854612 
L 61.703597 46.100661 
L 61.760601 45.838073 
L 61.817605 46.037163 
L 61.874609 47.074503 
L 61.931612 46.40369 
L 61.988616 46.16006 
L 62.04562 46.26778 
L 62.102623 46.223153 
L 62.159627 47.198476 
L 62.216631 46.664932 
L 62.330638 45.399346 
L 62.444646 46.229393 
L 62.672661 48.572355 
L 62.786668 49.374268 
L 63.014683 53.357038 
L 63.12869 50.828623 
L 63.185694 51.089966 
L 63.242698 50.940925 
L 63.470713 48.990553 
L 63.527716 49.51368 
L 63.58472 48.128084 
L 63.641724 48.705027 
L 63.812735 51.221718 
L 63.869739 51.254919 
L 63.983746 51.749085 
L 64.04075 51.575122 
L 64.154757 52.010702 
L 64.268765 51.404619 
L 64.439776 52.446661 
L 64.553783 51.991997 
L 64.610787 53.191657 
L 64.667791 52.648818 
L 64.724795 51.890312 
L 64.781798 52.30598 
L 64.838802 52.964723 
L 65.009813 52.041906 
L 65.294832 56.177109 
L 65.351836 56.11693 
L 65.408839 56.359199 
L 65.465843 56.232533 
L 65.522847 56.176235 
L 65.807865 52.813738 
L 65.864869 52.922038 
L 66.149888 61.462505 
L 66.206891 58.335703 
L 66.263895 60.373867 
L 66.320899 61.247825 
L 66.377903 56.981906 
L 66.434906 57.815562 
L 66.605917 59.14681 
L 66.662921 58.725668 
L 66.776929 60.068085 
L 66.833932 59.996816 
L 66.890936 59.839293 
L 67.004944 60.793147 
L 67.061947 61.92633 
L 67.175955 59.846671 
L 67.232958 59.853184 
L 67.460973 61.184916 
L 67.517977 60.710122 
L 67.859999 64.211237 
L 67.974007 63.703916 
L 68.145018 62.105022 
L 68.316029 62.797435 
L 68.373033 62.96267 
L 68.544044 66.573395 
L 68.658051 66.323611 
L 68.715055 64.969604 
L 68.772059 65.04869 
L 68.829063 65.494429 
L 68.94307 64.13906 
L 69.000074 64.309321 
L 69.114081 67.006825 
L 69.171085 66.929714 
L 69.342096 74.212369 
L 69.3991 74.455983 
L 69.456104 74.016004 
L 69.570111 75.206333 
L 69.627115 75.134805 
L 69.741122 76.004841 
L 69.798126 75.76191 
L 69.912133 75.099148 
L 70.026141 78.720983 
L 70.083145 78.509619 
L 70.311159 72.798332 
L 70.368163 72.341986 
L 70.425167 72.556797 
L 70.482171 72.576544 
L 70.539174 72.174449 
L 70.596178 73.576512 
L 70.767189 69.861467 
L 70.9382 72.588587 
L 71.166215 66.890427 
L 71.223219 66.968885 
L 71.337226 65.82047 
L 71.451234 64.654446 
L 71.736252 69.077429 
L 71.964267 71.138201 
L 72.021271 71.143525 
L 72.135278 73.064687 
L 72.192282 72.537451 
L 72.249286 72.77909 
L 72.363293 68.441774 
L 72.534305 70.871064 
L 72.762319 67.658915 
L 72.876327 67.756135 
L 72.990334 70.443262 
L 73.218349 77.415832 
L 73.446364 69.779399 
L 73.503368 71.163424 
L 73.731383 73.77623 
L 73.788386 73.47032 
L 74.244416 80.476549 
L 74.30142 80.338354 
L 74.358424 79.358119 
L 74.415427 79.911 
L 74.643442 77.629259 
L 74.75745 79.11705 
L 74.871457 77.358113 
L 74.928461 77.377574 
L 75.099472 75.932515 
L 75.213479 82.409861 
L 75.498498 78.513239 
L 75.612506 79.554092 
L 76.068535 73.90352 
L 76.125539 74.765666 
L 76.182543 75.59624 
L 76.353554 83.880277 
L 76.410558 83.443407 
L 76.524565 82.030706 
L 76.581569 82.055601 
L 76.695576 83.637624 
L 76.809584 83.333868 
L 77.037599 78.20268 
L 77.094602 79.417026 
L 77.151606 79.369053 
L 77.20861 81.321799 
L 77.265613 80.004803 
L 77.436625 80.644877 
L 77.493628 80.545328 
L 77.607636 77.804213 
L 77.721643 79.079749 
L 77.778647 78.837039 
L 77.949658 81.109806 
L 78.063666 79.864752 
L 78.120669 80.119681 
L 78.177673 81.760598 
L 78.234677 81.281609 
L 78.348684 82.685272 
L 78.576699 85.861979 
L 78.633703 86.090324 
L 78.690707 85.309278 
L 78.74771 85.784557 
L 78.804714 85.562448 
L 78.861718 87.594692 
L 78.918721 86.633559 
L 79.089733 87.851174 
L 79.146736 86.640208 
L 79.20374 86.844949 
L 79.260744 86.837139 
L 79.431755 88.857829 
L 79.488759 88.736061 
L 79.545762 88.219809 
L 79.716774 90.500664 
L 79.773777 89.28206 
L 79.887785 94.96201 
L 80.001792 93.787029 
L 80.058796 92.787215 
L 80.286811 97.340825 
L 80.343814 97.104763 
L 80.400818 99.267431 
L 80.571829 96.214834 
L 80.628833 96.237359 
L 80.856848 91.09201 
L 81.027859 91.176864 
L 81.255874 93.578393 
L 81.312878 94.061664 
L 81.540893 89.942954 
L 81.597896 88.735971 
L 81.6549 89.045461 
L 81.711904 88.724508 
L 81.825911 91.382728 
L 81.882915 91.280882 
L 81.939919 91.350395 
L 81.996922 90.504842 
L 82.11093 91.941203 
L 82.167934 91.853308 
L 82.509956 87.346789 
L 82.56696 88.445183 
L 82.623963 90.368376 
L 82.680967 89.151534 
L 82.794974 89.462647 
L 83.136997 83.255667 
L 83.194001 82.896398 
L 83.251004 83.307232 
L 83.308008 85.818358 
L 83.365012 84.615628 
L 83.536023 85.743351 
L 83.593027 85.829046 
L 83.707034 88.82795 
L 83.764038 87.454574 
L 83.821041 88.047576 
L 83.935049 88.169963 
L 84.505086 95.820087 
L 84.790105 92.526701 
L 84.847108 94.409019 
L 84.904112 93.577644 
L 84.961116 93.422149 
L 85.246135 96.005333 
L 85.303138 97.449917 
L 85.360142 97.124049 
L 85.417146 96.806891 
L 85.645161 99.457099 
L 85.873175 92.558041 
L 85.987183 92.931236 
L 86.215198 95.845047 
L 86.272202 95.104614 
L 86.329205 95.275606 
L 86.386209 95.527199 
L 86.671228 98.644176 
L 86.728231 98.339937 
L 87.01325 92.263548 
L 87.241265 93.773597 
L 87.355272 93.143173 
L 87.412276 95.065107 
L 87.46928 94.005952 
L 87.526283 92.967959 
L 87.583287 95.236273 
L 87.640291 93.671524 
L 87.697295 92.855115 
L 87.754298 93.795952 
L 87.925309 91.906094 
L 88.096321 93.040401 
L 88.381339 95.122217 
L 88.495347 93.12274 
L 88.780365 105.90976 
L 88.894373 105.197788 
L 89.065384 102.121071 
L 89.179391 104.408588 
L 89.236395 103.700214 
L 89.293399 104.252218 
L 89.350402 104.263711 
L 89.407406 103.651293 
L 89.46441 105.835159 
L 89.521414 105.450269 
L 89.578417 104.686516 
L 89.806432 108.929503 
L 90.034447 112.438639 
L 90.091451 111.849539 
L 90.319466 102.420667 
L 90.661488 109.742295 
L 90.718492 105.618751 
L 90.775496 106.035601 
L 90.832499 106.591657 
L 91.00351 100.493513 
L 91.231525 95.895473 
L 91.288529 97.663508 
L 91.45954 91.236086 
L 91.516544 91.307684 
L 91.573548 89.977501 
L 91.630551 90.059322 
L 91.858566 94.395064 
L 91.91557 94.510524 
L 92.029577 93.229796 
L 92.086581 93.379025 
L 92.200589 93.076463 
L 92.314596 93.661023 
L 92.3716 92.623231 
L 92.428603 93.20581 
L 92.485607 92.846112 
L 92.542611 93.903102 
L 92.599615 93.804275 
L 92.656618 93.381014 
L 92.82763 94.530514 
L 92.941637 91.740347 
L 92.998641 92.268021 
L 93.055644 89.270425 
L 93.112648 92.095161 
L 93.283659 96.580749 
L 93.511674 91.025795 
L 93.568678 94.294603 
L 93.625682 93.497992 
L 93.682685 92.128706 
L 93.853697 95.986369 
L 93.9107 96.845986 
L 93.967704 96.476336 
L 94.024708 95.03822 
L 94.081711 95.63048 
L 94.138715 95.047626 
L 94.252723 103.135137 
L 94.309726 101.233943 
L 94.36673 101.552138 
L 94.423734 104.022972 
L 94.594745 94.122131 
L 94.765756 89.272944 
L 94.82276 90.26675 
L 94.879764 90.220192 
L 94.993771 89.374314 
L 95.050775 89.461038 
L 95.27879 83.44304 
L 95.335793 84.212086 
L 95.449801 83.034491 
L 95.506804 83.634227 
L 95.563808 83.130817 
L 95.677816 81.482022 
L 95.905831 86.164863 
L 96.076842 84.347055 
L 96.133845 84.380854 
L 96.247853 86.911358 
L 96.304857 86.320709 
L 96.36186 86.896462 
L 96.475868 86.010918 
L 96.532871 86.476565 
L 96.589875 86.037272 
L 96.703883 84.921788 
L 96.81789 86.263445 
L 96.988901 88.295345 
L 97.045905 88.125314 
L 97.159912 89.114173 
L 97.27392 87.35578 
L 97.501935 96.283967 
L 97.615942 98.067393 
L 97.672946 97.776617 
L 97.72995 97.218387 
L 97.786953 97.871053 
L 97.843957 97.63454 
L 97.900961 97.647803 
L 98.071972 103.61352 
L 98.299987 105.641359 
L 98.413994 93.148864 
L 98.470998 94.459746 
L 98.528002 94.664954 
L 98.699013 97.224883 
L 98.870024 95.448583 
L 98.927028 96.904847 
L 99.041035 92.911333 
L 99.098039 94.167012 
L 99.212046 94.923128 
L 99.26905 94.414907 
L 99.497065 97.514784 
L 99.554069 97.813653 
L 99.611072 97.748831 
L 99.668076 95.686157 
L 99.72508 95.733192 
L 99.896091 96.788792 
L 99.953095 97.287094 
L 100.124106 95.904623 
L 100.238113 96.717045 
L 100.409125 99.179481 
L 100.466128 97.534228 
L 100.523132 97.800128 
L 100.637139 99.003932 
L 100.694143 98.487117 
L 100.865154 95.219971 
L 100.922158 94.056019 
L 100.979162 96.122892 
L 101.036165 95.487409 
L 101.150173 91.988279 
L 101.378188 106.031376 
L 101.435192 103.535623 
L 101.492195 103.553532 
L 101.549199 103.679992 
L 101.606203 106.005583 
L 101.663206 101.389316 
L 101.72021 102.951497 
L 101.834218 99.427074 
L 101.891221 101.61575 
L 101.948225 101.271475 
L 102.062232 100.237978 
L 102.347251 102.926642 
L 102.404255 103.260361 
L 102.461259 102.64052 
L 102.689273 97.072102 
L 102.803281 95.967674 
L 102.917288 96.892525 
L 103.373318 88.203846 
L 103.430322 88.179821 
L 103.487326 87.742888 
L 103.544329 87.854024 
L 103.601333 87.761149 
L 103.658337 87.901461 
L 103.772344 89.456809 
L 103.829348 89.025495 
L 103.886352 88.426491 
L 103.943355 91.151179 
L 104.000359 88.469562 
L 104.057363 88.488586 
L 104.114366 88.452077 
L 104.228374 87.333569 
L 104.285378 88.963368 
L 104.342381 87.748086 
L 104.456389 87.218043 
L 104.684404 93.863026 
L 104.741407 94.057279 
L 104.798411 93.32516 
L 104.912419 94.974892 
L 104.969422 94.58717 
L 105.026426 94.59099 
L 105.311445 95.773074 
L 105.482456 104.420984 
L 105.596463 102.866209 
L 105.767474 105.354997 
L 105.995489 112.046821 
L 106.109497 109.766363 
L 106.1665 113.72272 
L 106.223504 110.034722 
L 106.280508 107.828785 
L 106.337512 107.852415 
L 106.451519 111.295448 
L 106.508523 110.478096 
L 106.679534 108.390276 
L 106.850545 114.544882 
L 106.907549 112.582188 
L 107.021556 111.930361 
L 107.192567 113.519552 
L 107.306575 114.611407 
L 107.53459 106.62773 
L 107.591593 106.262183 
L 107.648597 106.933874 
L 107.762605 106.00891 
L 107.876612 107.450836 
L 107.933616 107.492543 
L 108.104627 105.814247 
L 108.218634 106.788984 
L 108.332642 103.484489 
L 108.503653 98.422958 
L 108.560657 97.910172 
L 108.61766 97.931404 
L 109.016687 103.264177 
L 109.187698 112.703395 
L 109.244701 112.643668 
L 109.301705 110.374511 
L 109.358709 110.951348 
L 109.415713 110.603495 
L 109.472716 107.193522 
L 109.52972 108.209008 
L 109.700731 110.194135 
L 109.757735 108.844713 
L 109.814739 108.894241 
L 109.871742 109.089308 
L 109.928746 109.031564 
L 110.099757 104.368505 
L 110.156761 104.557925 
L 110.384776 109.920009 
L 110.44178 110.160613 
L 110.498783 108.232484 
L 110.555787 108.236899 
L 110.612791 109.055361 
L 110.726798 106.788204 
L 110.783802 106.929115 
L 110.897809 108.086793 
L 111.011817 106.254145 
L 111.068821 103.087187 
L 111.125824 104.131393 
L 111.296835 111.932522 
L 111.353839 111.290897 
L 111.695861 107.252855 
L 111.866873 103.359917 
L 111.923876 102.500366 
L 112.094888 99.499838 
L 112.208895 101.581415 
L 112.265899 101.207019 
L 112.322902 104.263834 
L 112.379906 103.515894 
L 112.43691 103.498728 
L 112.493914 103.010466 
L 112.664925 99.628895 
L 112.835936 102.68954 
L 112.949943 106.294673 
L 113.006947 106.212428 
L 113.063951 106.005775 
L 113.120955 106.469384 
L 113.405973 112.226984 
L 113.462977 110.934823 
L 113.519981 112.732077 
L 113.576984 112.715832 
L 113.633988 112.536528 
L 113.747995 111.080914 
L 114.261029 120.926479 
L 114.318033 118.167658 
L 114.375036 118.536074 
L 114.43204 118.590761 
L 114.603051 124.665898 
L 114.660055 122.960831 
L 114.717059 123.969189 
L 114.774062 123.347513 
L 115.002077 125.998294 
L 115.059081 122.353521 
L 115.116085 122.863864 
L 115.173089 123.195098 
L 115.230092 125.525126 
L 115.401103 119.907132 
L 115.515111 128.028533 
L 115.572115 128.008269 
L 115.629118 128.214776 
L 115.743126 127.856149 
L 115.914137 120.798618 
L 115.971141 121.002403 
L 116.199155 115.158869 
L 116.256159 115.399841 
L 116.370167 116.325541 
L 116.42717 115.834107 
L 116.484174 115.160636 
L 116.541178 116.431344 
L 116.598182 115.508654 
L 116.712189 113.837146 
L 116.769193 114.366781 
L 116.826196 112.997732 
L 116.8832 113.507583 
L 116.940204 113.289739 
L 116.997208 113.63329 
L 117.111215 112.78385 
L 117.168219 116.589521 
L 117.225222 115.083175 
L 117.282226 114.8897 
L 117.453237 109.15434 
L 117.681252 113.640892 
L 117.852263 112.113718 
L 118.023275 115.796665 
L 118.080278 115.654315 
L 118.137282 116.411725 
L 118.194286 112.519836 
L 118.251289 115.814876 
L 118.308293 115.480269 
L 118.365297 115.568417 
L 118.593312 108.833608 
L 118.650316 109.801348 
L 118.707319 109.83242 
L 118.764323 110.034861 
L 118.821327 109.907072 
L 118.87833 111.458863 
L 118.935334 111.202581 
L 118.992338 111.141072 
L 119.049342 114.202349 
L 119.106345 113.965561 
L 119.163349 109.544397 
L 119.220353 109.608511 
L 119.277356 110.329844 
L 119.33436 109.842436 
L 119.391364 108.268287 
L 119.562375 111.062718 
L 119.619379 111.190443 
L 119.847394 104.378105 
L 120.018405 106.358749 
L 120.075409 105.785571 
L 120.132412 105.871839 
L 120.303423 107.440694 
L 120.360427 106.09191 
L 120.417431 107.310157 
L 120.474435 107.195225 
L 120.531438 107.30891 
L 120.645446 108.38068 
L 120.70245 108.243256 
L 120.759453 108.44379 
L 120.816457 109.512268 
L 120.930464 106.100564 
L 121.101476 112.234012 
L 121.158479 111.116547 
L 121.215483 111.146319 
L 121.272487 111.65339 
L 121.32949 110.948664 
L 121.443498 116.089003 
L 121.500502 115.701823 
L 121.614509 119.292325 
L 121.671513 117.386544 
L 121.956531 108.106941 
L 122.013535 113.502454 
L 122.070539 111.637849 
L 122.127543 110.13969 
L 122.184546 111.409369 
L 122.355557 113.498812 
L 122.412561 113.481127 
L 122.469565 113.598948 
L 122.640576 120.384651 
L 122.982598 106.133975 
L 123.210613 109.975532 
L 123.267617 109.953232 
L 123.324621 110.156233 
L 123.381624 109.704802 
L 123.438628 109.71369 
L 123.495632 109.724924 
L 123.666643 108.425856 
L 123.780651 111.079781 
L 123.837654 109.771192 
L 123.951662 109.933573 
L 124.065669 106.608557 
L 124.122673 106.808292 
L 124.23668 104.593681 
L 124.293684 104.880525 
L 124.350688 106.993096 
L 124.407691 106.264306 
L 124.464695 106.125123 
L 124.521699 105.506113 
L 124.806717 114.642269 
L 124.863721 109.514601 
L 124.920725 111.250449 
L 125.034732 112.165796 
L 125.205744 109.553944 
L 125.376755 109.103601 
L 125.433758 109.143575 
L 125.547766 114.031995 
L 125.832784 128.485768 
L 125.946792 125.169433 
L 126.060799 127.483756 
L 126.117803 127.308632 
L 126.345818 122.720418 
L 126.459825 122.247542 
L 126.573833 124.994073 
L 126.801848 118.769134 
L 126.972859 124.433353 
L 127.086866 127.234352 
L 127.257878 121.153731 
L 127.314881 121.310035 
L 127.371885 124.346138 
L 127.428889 121.808303 
L 127.5999 117.666614 
L 127.656904 116.854741 
L 127.713907 122.067644 
L 127.770911 120.151009 
L 127.827915 121.058039 
L 127.884918 120.037306 
L 127.941922 120.127756 
L 127.998926 120.037137 
L 128.226941 122.352634 
L 128.454956 116.707769 
L 128.511959 117.033163 
L 128.682971 109.292722 
L 128.739974 110.586944 
L 128.796978 111.749682 
L 128.853982 111.672089 
L 128.967989 111.220615 
L 129.024993 112.821523 
L 129.081997 111.828689 
L 129.196004 114.316972 
L 129.253008 116.39361 
L 129.310012 115.57872 
L 129.424019 115.150035 
L 129.652034 120.567063 
L 129.709038 117.146149 
L 129.766041 118.5813 
L 129.937052 115.12477 
L 130.108064 118.649626 
L 130.279075 114.504373 
L 130.336079 116.654071 
L 130.393082 115.052346 
L 130.450086 115.01717 
L 130.849112 119.487542 
L 130.906116 119.627883 
L 130.963119 119.531456 
L 131.077127 116.502635 
L 131.248138 122.138695 
L 131.305142 119.029921 
L 131.362146 119.042207 
L 131.533157 129.26314 
L 131.59016 128.033303 
L 131.818175 122.364167 
L 131.989186 122.370733 
L 132.04619 120.5443 
L 132.103194 120.614762 
L 132.217201 121.062361 
L 132.331209 120.100019 
L 132.50222 121.384978 
L 132.559224 124.789608 
L 132.616227 123.596422 
L 132.787239 129.531182 
L 132.844242 128.498203 
L 132.901246 127.365174 
L 133.243268 142.241236 
L 133.357276 137.44702 
L 133.41428 137.824058 
L 133.471283 137.835177 
L 133.528287 133.755967 
L 133.585291 134.700275 
L 133.699298 136.534446 
L 133.813306 133.829213 
L 134.155328 143.40439 
L 134.383343 131.099149 
L 134.896376 143.283091 
L 135.181395 135.483337 
L 135.238399 135.495678 
L 135.40941 126.041627 
L 135.466413 127.313725 
L 135.637425 123.803912 
L 135.922443 128.389303 
L 136.093454 119.107425 
L 136.207462 121.655511 
L 136.321469 111.545488 
L 136.378473 113.820389 
L 136.549484 113.475927 
L 136.606488 114.729637 
L 136.663492 113.939687 
L 136.777499 113.323352 
L 136.834503 113.500224 
L 137.005514 105.62853 
L 137.119521 108.671917 
L 137.176525 108.623821 
L 137.347536 110.092594 
L 137.40454 110.124889 
L 137.632555 107.468094 
L 137.803566 107.203286 
L 137.917574 110.12475 
L 137.974577 110.051785 
L 138.145588 112.550966 
L 138.373603 118.709468 
L 138.487611 117.870664 
L 138.544614 117.886725 
L 138.601618 118.372618 
L 138.772629 114.070244 
L 138.886637 120.258335 
L 138.943641 119.13495 
L 139.000644 118.795317 
L 139.057648 119.070444 
L 139.171655 127.973222 
L 139.228659 126.930361 
L 139.285663 126.916754 
L 139.342667 127.031551 
L 139.456674 126.626755 
L 139.513678 126.914714 
L 139.570681 124.194889 
L 139.627685 124.562607 
L 139.684689 124.583378 
L 139.969708 134.401575 
L 140.026711 134.510367 
L 140.083715 131.686153 
L 140.140719 131.898889 
L 140.197722 131.924121 
L 140.254726 131.079398 
L 140.425737 134.004008 
L 140.482741 133.959022 
L 140.539745 134.407895 
L 140.596748 134.23506 
L 140.76776 136.65223 
L 140.824763 137.751971 
L 140.881767 136.977424 
L 140.938771 137.285017 
L 141.223789 128.259573 
L 141.280793 130.393171 
L 141.337797 130.073267 
L 141.565812 127.178641 
L 141.622815 129.821774 
L 141.679819 128.135058 
L 141.736823 125.497821 
L 141.907834 130.942619 
L 141.964838 130.943988 
L 142.078845 135.041444 
L 142.363864 126.074486 
L 142.477871 128.329494 
L 142.534875 126.015279 
L 142.591879 126.957779 
L 142.648882 129.334784 
L 142.705886 125.521441 
L 142.76289 126.961377 
L 142.990905 122.671831 
L 143.047908 122.725422 
L 143.104912 123.533624 
L 143.161916 122.004444 
L 143.21892 122.457948 
L 143.275923 122.200296 
L 143.389931 121.213957 
L 143.503938 121.444525 
L 143.560942 120.421849 
L 143.617946 120.683007 
L 143.674949 120.693303 
L 143.788957 121.439908 
L 143.845961 120.764147 
L 144.016972 112.296662 
L 144.073975 112.06574 
L 144.130979 111.207692 
L 144.187983 111.21884 
L 144.587009 116.954582 
L 144.644013 116.765094 
L 144.815024 115.199989 
L 144.929031 113.228792 
L 145.271054 121.475807 
L 145.328057 120.679061 
L 145.385061 120.926565 
L 145.442065 121.50484 
L 145.67008 111.502978 
L 145.727083 111.449659 
L 145.841091 114.496033 
L 145.955098 113.890525 
L 146.012102 113.474515 
L 146.126109 114.067613 
L 146.354124 112.088278 
L 146.411128 112.519034 
L 146.468132 112.550455 
L 146.696147 108.095865 
L 146.924162 120.29263 
L 147.095173 118.36844 
L 147.20918 116.149541 
L 147.266184 116.428901 
L 147.437195 114.297938 
L 147.494199 114.506497 
L 147.66521 110.249823 
L 147.779217 112.487196 
L 147.836221 112.4326 
L 147.893225 112.312482 
L 148.064236 110.314709 
L 148.12124 108.699797 
L 148.178243 109.122733 
L 148.463262 116.565098 
L 148.634273 123.483516 
L 148.748281 124.443063 
L 148.805284 124.013367 
L 148.862288 126.156154 
L 148.919292 124.634415 
L 148.976296 121.2287 
L 149.033299 121.813217 
L 149.147307 121.905179 
L 149.546333 131.143962 
L 149.603337 130.982444 
L 149.66034 131.191673 
L 149.774348 128.440267 
L 149.888355 130.719536 
L 150.002363 130.495982 
L 150.287381 135.545416 
L 150.344385 134.271628 
L 150.458392 141.470456 
L 150.5724 135.062937 
L 150.629404 135.288832 
L 150.743411 133.345684 
L 150.800415 126.979276 
L 150.857418 127.109334 
L 150.971426 131.470807 
L 151.02843 130.256279 
L 151.085433 130.312093 
L 151.142437 130.529603 
L 151.199441 126.659228 
L 151.256444 126.983752 
L 151.313448 128.691843 
L 151.370452 127.936713 
L 151.427456 128.124106 
L 151.598467 123.810122 
L 151.65547 124.35777 
L 151.712474 123.36489 
L 151.883485 129.161101 
L 151.940489 129.145452 
L 152.168504 123.258285 
L 152.225508 123.501302 
L 152.339515 119.32229 
L 152.56753 123.673139 
L 152.624534 123.931457 
L 152.681537 123.062845 
L 152.852549 126.378787 
L 152.909552 125.882223 
L 153.080564 123.397758 
L 153.137567 122.495207 
L 153.194571 122.719703 
L 153.251575 122.703443 
L 153.308578 122.32736 
L 153.422586 127.154227 
L 153.47959 125.730158 
L 153.536593 125.973971 
L 153.593597 126.882852 
L 153.650601 134.297522 
L 153.707604 132.005273 
L 153.764608 131.968282 
L 153.935619 117.886644 
L 153.992623 116.64576 
L 154.106631 120.975385 
L 154.163634 117.811411 
L 154.220638 118.374256 
L 154.277642 118.388185 
L 154.391649 119.049597 
L 154.505657 119.047355 
L 154.619664 117.922029 
L 154.676668 118.221535 
L 154.733671 117.928931 
L 154.790675 117.935915 
L 154.961686 120.896314 
L 155.132698 126.40754 
L 155.303709 120.891834 
L 155.588727 121.503009 
L 155.702735 122.069496 
L 155.759738 121.680098 
L 155.816742 124.128487 
L 155.873746 124.022262 
L 155.987753 124.344107 
L 156.101761 124.873216 
L 156.158765 124.033269 
L 156.215768 125.578363 
L 156.272772 124.008416 
L 156.329776 125.380831 
L 156.386779 125.451936 
L 156.500787 123.849864 
L 156.557791 125.774494 
L 156.614794 124.484052 
L 156.785805 143.183734 
L 156.899813 143.710903 
L 156.956817 143.615984 
L 157.070824 149.169125 
L 157.241835 142.232129 
L 157.412846 146.504355 
L 157.46985 145.219154 
L 157.526854 145.776966 
L 157.583858 146.024045 
L 157.697865 143.347145 
L 157.754869 143.594554 
L 157.811872 143.578555 
L 157.868876 142.564193 
L 157.92588 143.176471 
L 157.982884 143.51935 
L 158.039887 150.315545 
L 158.096891 147.770486 
L 158.324906 144.441621 
L 158.438913 145.733215 
L 158.780936 141.927956 
L 158.837939 143.386967 
L 158.894943 141.845129 
L 158.951947 141.850891 
L 159.008951 143.521516 
L 159.065954 142.892456 
L 159.122958 142.787599 
L 159.293969 140.866504 
L 159.46498 143.520974 
L 159.635992 143.570015 
L 159.692995 145.162314 
L 159.92101 137.455656 
L 160.092021 144.443966 
L 160.206029 144.1091 
L 160.37704 138.48283 
L 160.434044 138.900614 
L 160.548051 140.527876 
L 160.605055 140.393115 
L 160.662059 139.95782 
L 160.776066 141.251287 
L 160.947077 140.010179 
L 161.004081 143.784082 
L 161.061085 142.350376 
L 161.232096 145.564659 
L 161.289099 143.006378 
L 161.346103 143.53235 
L 161.403107 143.155497 
L 161.517114 146.867565 
L 161.631122 146.407723 
L 161.859137 136.853066 
L 162.258163 146.234167 
L 162.543181 137.604376 
L 162.657189 139.218184 
L 162.714193 138.951879 
L 162.8282 139.369252 
L 162.885204 141.833607 
L 162.942207 137.745817 
L 162.999211 137.957883 
L 163.056215 138.088665 
L 163.227226 145.067538 
L 163.341233 144.691603 
L 163.398237 140.095332 
L 163.455241 140.237661 
L 163.626252 140.56207 
L 163.683256 140.282698 
L 163.74026 139.32229 
L 163.911271 142.784797 
L 164.082282 139.052707 
L 164.196289 141.080251 
L 164.253293 141.020964 
L 164.310297 141.156525 
L 164.3673 138.376177 
L 164.424304 138.769543 
L 164.481308 138.641885 
L 164.82333 149.874847 
L 165.108349 140.459431 
L 165.222356 141.853249 
L 165.27936 140.756448 
L 165.450371 145.922651 
L 165.507375 145.919952 
L 165.564379 146.046541 
L 165.621382 150.073715 
L 165.73539 142.045749 
L 165.792394 146.360551 
L 165.849397 146.356109 
L 165.906401 143.523953 
L 165.963405 143.973783 
L 166.020408 144.162698 
L 166.19142 136.329722 
L 166.248423 141.561257 
L 166.305427 141.495806 
L 166.362431 141.741396 
L 166.476438 135.483799 
L 166.533442 135.867425 
L 166.704453 137.506301 
L 166.761457 132.751672 
L 166.818461 134.61645 
L 166.875464 133.256043 
L 166.989472 134.883158 
L 167.046475 134.862994 
L 167.103479 133.331322 
L 167.160483 133.372652 
L 167.331494 137.332498 
L 167.388498 137.33166 
L 167.445501 138.226977 
L 167.502505 138.19288 
L 167.673516 138.087451 
L 167.787524 141.374111 
L 167.844528 139.255846 
L 167.901531 144.238189 
L 167.958535 144.067741 
L 168.072542 143.088735 
L 168.129546 145.089608 
L 168.300557 133.951304 
L 168.357561 133.909158 
L 168.471568 134.740479 
L 168.64258 140.799005 
L 168.699583 135.832924 
L 168.756587 138.374833 
L 168.870595 135.198971 
L 168.927598 137.410694 
L 168.984602 133.217454 
L 169.041606 136.525497 
L 169.212617 136.395678 
L 169.383628 141.000101 
L 169.497635 141.237572 
L 169.554639 141.159495 
L 169.611643 142.187282 
L 169.72565 137.523474 
L 169.782654 137.660953 
L 169.839658 137.632897 
L 169.896661 135.731651 
L 169.953665 137.718196 
L 170.010669 137.071134 
L 170.067673 137.226117 
L 170.238684 131.925195 
L 170.352691 131.909302 
L 170.63771 123.654563 
L 170.751717 125.777534 
L 170.979732 122.694779 
L 171.150743 128.226146 
L 171.207747 128.117537 
L 171.264751 129.243184 
L 171.321755 128.104201 
L 171.378758 128.720344 
L 171.435762 128.712487 
L 171.492766 128.590357 
L 171.549769 132.939832 
L 171.720781 120.906051 
L 171.777784 120.88477 
L 171.891792 125.785133 
L 172.062803 122.77764 
L 172.119807 122.72158 
L 172.17681 124.142919 
L 172.233814 124.138322 
L 172.347822 123.088043 
L 172.404825 123.080303 
L 172.518833 129.339271 
L 172.63284 128.984271 
L 172.803851 127.228289 
L 172.917859 127.336062 
L 172.974862 131.144279 
L 173.031866 128.197825 
L 173.08887 128.77437 
L 173.145874 128.69869 
L 173.202877 128.455296 
L 173.316885 129.953867 
L 173.373889 134.824626 
L 173.430892 134.14314 
L 173.487896 134.596507 
L 173.5449 134.415796 
L 173.601903 134.44809 
L 173.772915 138.030269 
L 173.829918 140.422889 
L 173.886922 139.163791 
L 173.943926 138.292799 
L 174.000929 139.220917 
L 174.114937 137.924696 
L 174.228944 139.757092 
L 174.285948 139.745036 
L 174.399956 139.618376 
L 174.570967 163.043154 
L 174.684974 160.130833 
L 174.741978 151.013041 
L 174.798982 153.240254 
L 174.855985 153.252917 
L 174.969993 145.47123 
L 175.026996 145.506862 
L 175.084 143.184541 
L 175.141004 144.666521 
L 175.255011 144.781087 
L 175.369019 145.341874 
L 175.426023 147.54238 
L 175.483026 144.979632 
L 175.54003 145.753457 
L 175.711041 150.079735 
L 175.825049 143.342557 
L 175.882052 147.343801 
L 175.99606 141.13496 
L 176.053063 141.453043 
L 176.110067 143.77959 
L 176.338082 135.575791 
L 176.395086 135.578101 
L 176.45209 135.585149 
L 176.509093 133.19718 
L 176.566097 133.869616 
L 176.737108 133.692063 
L 176.908119 137.453257 
L 177.022127 137.705778 
L 177.307145 129.842683 
L 177.53516 126.646855 
L 177.763175 139.683923 
L 177.877183 139.756087 
L 177.99119 141.709129 
L 178.276209 140.041494 
L 178.504223 135.733737 
L 178.561227 135.751472 
L 178.789242 145.83777 
L 178.846246 146.111239 
L 178.960253 143.31113 
L 179.017257 143.866638 
L 179.245272 151.994547 
L 179.302276 151.251561 
L 179.53029 143.38143 
L 179.587294 145.807713 
L 179.701302 143.372924 
L 179.815309 143.357266 
L 179.872313 142.130357 
L 179.929317 137.325678 
L 179.98632 139.653583 
L 180.043324 141.009115 
L 180.157331 138.799476 
L 180.385346 145.34721 
L 180.44235 145.146925 
L 180.499354 145.159935 
L 180.670365 142.131937 
L 180.727369 142.145636 
L 180.841376 141.278598 
L 180.955384 141.677275 
L 181.069391 140.006518 
L 181.126395 138.278043 
L 181.297406 145.179527 
L 181.35441 144.825403 
L 181.411413 144.874348 
L 181.468417 144.913316 
L 181.639428 144.360177 
L 181.867443 147.168286 
L 181.924447 147.278659 
L 181.981451 142.512411 
L 182.038454 142.579206 
L 182.152462 142.978242 
L 182.323473 150.080198 
L 182.380477 148.59415 
L 182.43748 148.596697 
L 182.494484 151.435206 
L 182.551488 151.217282 
L 182.608491 151.148951 
L 182.665495 148.118094 
L 182.722499 149.517155 
L 182.89351 160.677075 
L 183.007518 163.186766 
L 183.235532 163.073365 
L 183.292536 163.557409 
L 183.34954 160.872042 
L 183.520551 165.325719 
L 183.577555 165.307091 
L 183.634558 165.517424 
L 183.748566 159.682604 
L 183.80557 159.689524 
L 183.862573 157.831909 
L 183.919577 159.79944 
L 183.976581 158.111141 
L 184.147592 157.762928 
L 184.318603 153.227595 
L 184.375607 155.686947 
L 184.546618 144.903154 
L 184.717629 147.969732 
L 184.774633 147.972544 
L 184.88864 152.26908 
L 184.945644 152.175953 
L 185.059652 152.821075 
L 185.116655 154.845568 
L 185.173659 153.469335 
L 185.230663 154.049508 
L 185.287666 153.916165 
L 185.34467 153.917331 
L 185.458678 154.338774 
L 185.515681 157.746913 
L 185.572685 157.630278 
L 185.8007 143.116934 
L 185.914707 144.84695 
L 186.142722 144.252889 
L 186.199726 146.179162 
L 186.25673 144.672202 
L 186.313733 142.514534 
L 186.370737 142.520507 
L 186.427741 142.516525 
L 186.484745 143.401418 
L 186.541748 142.529533 
L 186.598752 142.636378 
L 186.655756 139.071163 
L 186.712759 140.909669 
L 186.769763 140.907227 
L 186.883771 135.358146 
L 186.997778 135.623064 
L 187.054782 138.255733 
L 187.111785 137.18494 
L 187.225793 135.608265 
L 187.396804 140.473317 
L 187.567815 136.681867 
L 187.681823 137.31527 
L 187.738826 137.279399 
L 187.852834 137.408537 
L 187.966841 137.273423 
L 188.080849 140.669141 
L 188.137852 138.877532 
L 188.194856 138.915556 
L 188.25186 138.869881 
L 188.308864 136.930397 
L 188.365867 136.954618 
L 188.422871 136.929685 
L 188.479875 137.540653 
L 188.536879 144.842361 
L 188.593882 140.392479 
L 188.650886 144.135686 
L 188.70789 144.113895 
L 188.878901 140.658142 
L 188.935905 140.68961 
L 188.992908 141.030239 
L 189.049912 140.945282 
L 189.106916 140.473444 
L 189.220923 143.34593 
L 189.334931 134.092981 
L 189.391934 138.3741 
L 189.448938 138.345886 
L 189.562946 141.941468 
L 189.619949 139.878817 
L 189.733957 145.83068 
L 189.79096 145.789149 
L 189.847964 145.61984 
L 189.904968 144.601172 
L 190.132983 150.255404 
L 190.24699 148.228799 
L 190.303994 149.041049 
L 190.360998 148.970641 
L 190.418001 152.896791 
L 190.475005 152.805423 
L 190.70302 142.259189 
L 190.760024 142.405698 
L 190.931035 142.26315 
L 190.988039 144.183961 
L 191.045042 142.72599 
L 191.102046 138.871238 
L 191.15905 139.137486 
L 191.216053 139.13761 
L 191.273057 138.947553 
L 191.330061 139.115782 
L 191.387065 135.382768 
L 191.501072 139.396178 
L 191.558076 139.421747 
L 191.729087 141.031012 
L 191.843094 133.165021 
L 191.900098 133.150601 
L 191.957102 134.721055 
L 192.014106 134.701297 
L 192.071109 134.699594 
L 192.299124 143.732927 
L 192.356128 143.603505 
L 192.413132 143.567847 
L 192.584143 148.473664 
L 192.641147 148.387034 
L 192.812158 148.597596 
L 192.869161 148.486372 
L 192.983169 146.713766 
L 193.097176 147.929199 
L 193.15418 146.715498 
L 193.211184 146.768062 
L 193.268187 146.707705 
L 193.325191 146.788583 
L 193.439199 148.586508 
L 193.553206 151.80357 
L 193.61021 151.7555 
L 193.667214 149.893453 
L 193.724217 149.902681 
L 193.838225 149.992748 
L 193.895228 151.456305 
L 194.06624 158.964761 
L 194.123243 159.401743 
L 194.237251 163.630209 
L 194.465266 149.537918 
L 194.522269 149.536391 
L 194.579273 150.037148 
L 194.693281 160.725937 
L 194.807288 161.022802 
L 194.978299 153.708265 
L 195.035303 153.704282 
L 195.14931 150.799449 
L 195.263318 150.98977 
L 195.377325 150.738098 
L 195.491333 153.074291 
L 195.548336 152.882422 
L 195.60534 154.386195 
L 195.662344 154.342304 
L 195.719347 148.31754 
L 195.776351 149.931608 
L 195.890359 154.105354 
L 195.947362 154.077256 
L 196.004366 155.959468 
L 196.06137 155.89614 
L 196.175377 155.861473 
L 196.232381 149.437235 
L 196.289385 151.933477 
L 196.346388 153.452654 
L 196.460396 150.578189 
L 196.574403 152.699581 
L 196.745414 145.528704 
L 196.859422 145.379521 
L 197.030433 140.3293 
L 197.258448 153.133817 
L 197.429459 142.623874 
L 197.60047 143.082694 
L 197.657474 143.080949 
L 197.714478 142.967126 
L 197.885489 139.034382 
L 197.942493 141.25724 
L 197.999496 141.231492 
L 198.0565 141.241324 
L 198.113504 140.64689 
L 198.170508 140.743253 
L 198.341519 140.779773 
L 198.455526 136.400376 
L 198.51253 136.440089 
L 198.626537 141.27096 
L 198.854552 136.201111 
L 198.911556 136.222289 
L 199.025563 132.840085 
L 199.082567 138.047744 
L 199.139571 136.899901 
L 199.196575 137.093279 
L 199.310582 139.311707 
L 199.367586 139.280223 
L 199.424589 138.649009 
L 199.538597 143.794564 
L 199.595601 142.26764 
L 199.652604 142.533383 
L 199.709608 142.512278 
L 199.766612 145.345525 
L 199.937623 141.382933 
L 199.994627 142.293662 
L 200.05163 142.236352 
L 200.108634 142.303837 
L 200.165638 150.689947 
L 200.222642 150.642623 
L 200.336649 147.052343 
L 200.450656 147.021838 
L 200.50766 146.843973 
L 200.735675 157.045116 
L 201.020694 154.149372 
L 201.134701 154.247758 
L 201.191705 150.091777 
L 201.248709 153.65286 
L 201.305712 153.579469 
L 201.362716 153.084617 
L 201.41972 150.662609 
L 201.476723 150.702918 
L 201.533727 154.209018 
L 201.647735 150.126067 
L 201.875749 157.78309 
L 201.932753 155.254731 
L 201.989757 156.969593 
L 202.046761 156.970479 
L 202.103764 156.85387 
L 202.388783 141.78323 
L 202.445787 142.400269 
L 202.50279 142.223157 
L 202.559794 142.243611 
L 202.616798 142.25206 
L 202.673802 145.415088 
L 202.730805 143.190728 
L 202.787809 143.245236 
L 202.901816 143.661995 
L 203.072828 139.478669 
L 203.186835 142.136152 
L 203.243839 142.134835 
L 203.471854 139.69609 
L 203.528857 141.05975 
L 203.756872 137.482652 
L 203.813876 139.415634 
L 203.87088 139.394308 
L 203.927883 139.43385 
L 203.984887 137.473412 
L 204.041891 140.617493 
L 204.098895 139.662733 
L 204.212902 139.70713 
L 204.269906 141.633313 
L 204.32691 141.516747 
L 204.383913 141.519869 
L 204.497921 145.723451 
L 204.554924 145.750201 
L 204.611928 142.012497 
L 204.668932 142.089417 
L 204.725936 141.934121 
L 204.782939 142.629727 
L 204.839943 142.31983 
L 204.896947 139.872019 
L 204.95395 139.932984 
L 205.181965 150.702293 
L 205.238969 148.147641 
L 205.523988 138.001156 
L 205.809006 144.806644 
L 205.86601 139.823451 
L 205.923014 142.404241 
L 205.980017 142.498479 
L 206.151029 137.932446 
L 206.208032 138.030997 
L 206.32204 132.612975 
L 206.379043 132.641076 
L 206.493051 136.348373 
L 206.664062 131.870987 
L 206.721066 131.838382 
L 206.77807 129.876487 
L 206.835073 131.560502 
L 206.892077 130.410048 
L 207.063088 133.044721 
L 207.120092 132.96099 
L 207.177096 133.045051 
L 207.234099 133.002125 
L 207.291103 133.119132 
L 207.348107 133.089663 
L 207.40511 133.040548 
L 207.519118 135.907183 
L 207.576122 131.369162 
L 207.633125 133.223186 
L 207.690129 133.345242 
L 207.747133 135.484721 
L 207.804137 135.348255 
L 207.918144 135.355845 
L 208.146159 144.664582 
L 208.203163 144.68204 
L 208.374174 153.883342 
L 208.431177 153.927666 
L 208.602189 153.810943 
L 208.659192 152.972785 
L 208.887207 160.462535 
L 208.944211 160.123285 
L 209.115222 171.297922 
L 209.172226 170.703289 
L 209.343237 170.461462 
L 209.514248 179.983899 
L 209.571252 179.981935 
L 209.628256 185.485313 
L 209.685259 184.522207 
L 209.742263 179.976324 
L 209.799267 180.059432 
L 209.856271 180.08754 
L 209.913274 177.858272 
L 209.970278 178.101692 
L 210.141289 178.056315 
L 210.198293 177.86392 
L 210.3123 170.783069 
L 210.369304 170.760429 
L 210.426308 179.212111 
L 210.483311 173.39723 
L 210.654323 170.406748 
L 210.711326 170.384045 
L 211.110352 148.367936 
L 211.167356 148.386139 
L 211.281364 143.836924 
L 211.338367 143.937861 
L 211.452375 143.825479 
L 211.509378 139.890149 
L 211.566382 142.869062 
L 211.623386 140.1648 
L 211.68039 142.827513 
L 211.737393 141.96929 
L 211.851401 142.178844 
L 211.965408 139.768272 
L 212.022412 144.028468 
L 212.079416 143.300209 
L 212.193423 143.382916 
L 212.250427 141.755511 
L 212.307431 142.40199 
L 212.421438 142.427685 
L 212.478442 142.442922 
L 212.535445 142.852224 
L 212.592449 145.903051 
L 212.649453 145.895241 
L 212.706457 145.849826 
L 212.820464 147.040139 
L 212.877468 143.390883 
L 212.934472 143.459132 
L 212.991475 143.433173 
L 213.048479 143.584927 
L 213.162486 147.64623 
L 213.21949 145.569173 
L 213.276494 145.592595 
L 213.447505 150.812449 
L 213.618516 144.511319 
L 213.732524 153.193906 
L 213.789527 153.152033 
L 213.846531 153.302283 
L 214.13155 163.288163 
L 214.188553 163.202615 
L 214.245557 163.386544 
L 214.302561 163.255614 
L 214.473572 175.594636 
L 214.530576 175.601833 
L 214.587579 177.257644 
L 214.701587 173.949539 
L 214.872598 178.296632 
L 214.929602 179.227309 
L 214.986605 179.143363 
L 215.100613 170.484664 
L 215.157617 170.517397 
L 215.271624 170.571767 
L 215.385632 170.31438 
L 215.499639 162.074351 
L 215.613646 162.107515 
L 215.67065 162.089655 
L 215.727654 167.501338 
L 215.784658 163.354735 
L 215.841661 163.398024 
L 215.898665 163.313696 
L 215.955669 163.342862 
L 216.012672 163.697845 
L 216.12668 168.267171 
L 216.297691 163.520241 
L 216.525706 174.588809 
L 216.867728 180.813112 
L 216.924732 180.72789 
L 217.038739 180.713937 
L 217.095743 173.720505 
L 217.152747 173.782437 
L 217.380762 174.291687 
L 217.437766 171.251712 
L 217.494769 174.303207 
L 217.551773 169.191012 
L 217.608777 169.487695 
L 217.779788 170.055549 
L 217.836792 168.393212 
L 217.950799 179.974921 
L 218.007803 179.654461 
L 218.178814 171.85389 
L 218.235818 171.979264 
L 218.406829 182.161902 
L 218.520836 182.121476 
L 218.57784 182.032829 
L 218.691847 187.496682 
L 218.748851 187.389209 
L 218.976866 174.326256 
L 219.03387 179.554216 
L 219.261885 162.348172 
L 219.432896 157.429635 
L 219.4899 157.396392 
L 219.546903 157.494398 
L 219.717914 150.169812 
L 219.774918 150.228921 
L 219.888926 150.276011 
L 219.945929 154.551172 
L 220.002933 151.816513 
L 220.230948 141.441351 
L 220.287952 141.153942 
L 220.344955 139.05667 
L 220.401959 140.355223 
L 220.515967 140.395023 
L 220.629974 140.267343 
L 220.686978 141.220757 
L 220.743981 141.185852 
L 220.800985 141.178486 
L 220.971996 136.262915 
L 221.086004 137.600045 
L 221.143007 137.527318 
L 221.200011 138.109199 
L 221.257015 138.103002 
L 221.542034 132.522136 
L 221.599037 132.583148 
L 221.770048 135.093478 
L 221.884056 134.054414 
L 222.169074 145.332045 
L 222.226078 144.856822 
L 222.283082 146.390369 
L 222.454093 139.982163 
L 222.511097 138.669037 
L 222.625104 142.284942 
L 222.682108 142.30278 
L 222.796115 141.152908 
L 222.910123 147.576581 
L 222.967127 154.234506 
L 223.02413 154.071404 
L 223.081134 153.987381 
L 223.252145 160.731666 
L 223.309149 160.565978 
L 223.366153 160.536292 
L 223.48016 160.705126 
L 223.537164 157.500306 
L 223.594167 157.567132 
L 223.651171 157.541681 
L 223.765179 165.45442 
L 223.822182 162.573346 
L 223.879186 162.563242 
L 223.93619 160.216955 
L 223.993194 160.393438 
L 224.050197 149.666508 
L 224.107201 149.67447 
L 224.39222 158.020061 
L 224.449223 153.284341 
L 224.506227 153.766722 
L 224.620234 153.824083 
L 224.677238 156.13582 
L 224.791246 152.174343 
L 224.848249 152.346226 
L 225.133268 146.062352 
L 225.304279 152.732449 
L 225.418287 154.599301 
L 225.532294 150.01556 
L 225.589298 151.358025 
L 225.703305 151.295037 
L 225.760309 151.06481 
L 225.817313 151.093944 
L 225.874316 151.262466 
L 225.93132 149.819994 
L 225.988324 149.856402 
L 226.045328 149.857171 
L 226.216339 146.28122 
L 226.330346 146.279789 
L 226.38735 148.843825 
L 226.558361 141.059621 
L 226.615365 132.756586 
L 226.672368 136.61801 
L 226.729372 136.614 
L 226.900383 140.515761 
L 227.014391 139.290425 
L 227.128398 139.385331 
L 227.242406 139.308098 
L 227.299409 142.873339 
L 227.356413 142.859306 
L 227.470421 142.779193 
L 227.755439 151.361034 
L 227.869447 151.274164 
L 227.92645 157.263283 
L 227.92645 157.263283 
" clip-path="url(#p80ddb0246e)" style="fill: none; stroke: #141414; stroke-width: 1.6; stroke-linecap: round"/>
   </g>
   <g id="patch_3">
    <path d="M 51.357422 195.1 
L 51.357422 13.162 
" style="fill: none; stroke: #6f6f6a; stroke-width: 0.8; stroke-linejoin: miter; stroke-linecap: square"/>
   </g>
   <g id="patch_4">
    <path d="M 51.357422 195.1 
L 236.334499 195.1 
" style="fill: none; stroke: #6f6f6a; stroke-width: 0.8; stroke-linejoin: miter; stroke-linecap: square"/>
   </g>
   <g id="text_11">
    <!-- fine-tuned laya -->
    <g style="fill: #4d4d4a" transform="translate(176.623101 93.708445) scale(0.09 -0.09)">
     <defs>
      <path id="HelveticaNeue-c4" d="M 2336 0 
L 2880 0 
L 2880 3309 
L 2336 3309 
L 2336 0 
z
M 2336 3904 
L 2880 3904 
L 2880 4570 
L 2336 4570 
L 2336 3904 
z
M 634 2829 
L 634 0 
L 1178 0 
L 1178 2829 
L 1818 2829 
L 1818 3309 
L 1178 3309 
L 1178 3770 
Q 1178 3987 1286 4064 
Q 1395 4141 1594 4141 
Q 1664 4141 1747 4131 
Q 1830 4122 1901 4096 
L 1901 4570 
Q 1824 4595 1725 4608 
Q 1626 4621 1549 4621 
Q 1101 4621 867 4413 
Q 634 4205 634 3802 
L 634 3309 
L 77 3309 
L 77 2829 
L 634 2829 
z
" transform="scale(0.015625)"/>
      <path id="HelveticaNeue-5c" d="M 3149 0 
L 3149 3309 
L 2605 3309 
L 2605 1440 
Q 2605 1216 2544 1027 
Q 2483 838 2361 697 
Q 2240 557 2057 480 
Q 1875 403 1626 403 
Q 1312 403 1133 582 
Q 954 762 954 1069 
L 954 3309 
L 410 3309 
L 410 1133 
Q 410 864 464 643 
Q 518 422 652 262 
Q 787 102 1004 16 
Q 1222 -70 1549 -70 
Q 1914 -70 2182 74 
Q 2451 218 2624 525 
L 2637 525 
L 2637 0 
L 3149 0 
z
" transform="scale(0.015625)"/>
      <path id="HelveticaNeue-4b" d="M 806 1626 
Q 806 1869 857 2099 
Q 909 2330 1024 2509 
Q 1139 2688 1331 2797 
Q 1523 2906 1798 2906 
Q 2080 2906 2278 2800 
Q 2477 2694 2601 2521 
Q 2726 2349 2784 2121 
Q 2842 1894 2842 1651 
Q 2842 1421 2787 1197 
Q 2733 973 2611 797 
Q 2490 621 2298 512 
Q 2106 403 1830 403 
Q 1568 403 1373 505 
Q 1178 608 1053 781 
Q 928 954 867 1174 
Q 806 1395 806 1626 
z
M 3366 0 
L 3366 4570 
L 2822 4570 
L 2822 2867 
L 2810 2867 
Q 2720 3014 2589 3113 
Q 2458 3213 2310 3273 
Q 2163 3334 2016 3360 
Q 1869 3386 1741 3386 
Q 1363 3386 1078 3248 
Q 794 3110 605 2876 
Q 416 2643 323 2329 
Q 230 2016 230 1664 
Q 230 1312 326 998 
Q 422 685 611 448 
Q 800 211 1085 70 
Q 1370 -70 1754 -70 
Q 2099 -70 2387 51 
Q 2675 173 2810 448 
L 2822 448 
L 2822 0 
L 3366 0 
z
" transform="scale(0.015625)"/>
      <path id="HelveticaNeue-60" d="M 1709 -442 
Q 1613 -685 1520 -851 
Q 1427 -1018 1315 -1123 
Q 1203 -1229 1065 -1277 
Q 928 -1325 749 -1325 
Q 653 -1325 557 -1312 
Q 461 -1299 371 -1267 
L 371 -768 
Q 442 -800 534 -822 
Q 627 -845 691 -845 
Q 858 -845 970 -765 
Q 1082 -685 1139 -538 
L 1363 19 
L 51 3309 
L 666 3309 
L 1632 602 
L 1645 602 
L 2573 3309 
L 3149 3309 
L 1709 -442 
z
" transform="scale(0.015625)"/>
     </defs>
     <use xlink:href="#HelveticaNeue-c4"/>
     <use xlink:href="#HelveticaNeue-55" transform="translate(51.796875 0)"/>
     <use xlink:href="#HelveticaNeue-4c" transform="translate(107.390625 0)"/>
     <use xlink:href="#HelveticaNeue-14" transform="translate(161.09375 0)"/>
     <use xlink:href="#HelveticaNeue-5b" transform="translate(200 0)"/>
     <use xlink:href="#HelveticaNeue-5c" transform="translate(231.5 0)"/>
     <use xlink:href="#HelveticaNeue-55" transform="translate(287.09375 0)"/>
     <use xlink:href="#HelveticaNeue-4c" transform="translate(342.6875 0)"/>
     <use xlink:href="#HelveticaNeue-4b" transform="translate(396.390625 0)"/>
     <use xlink:href="#HelveticaNeue-3" transform="translate(455.6875 0)"/>
     <use xlink:href="#HelveticaNeue-53" transform="translate(483.484375 0)"/>
     <use xlink:href="#HelveticaNeue-48" transform="translate(505.6875 0)"/>
     <use xlink:href="#HelveticaNeue-60" transform="translate(559.390625 0)"/>
     <use xlink:href="#HelveticaNeue-48" transform="translate(609.390625 0)"/>
    </g>
   </g>
  </g>
  <g id="axes_2">
   <g id="patch_5">
    <path d="M 296.70707 195.1 
L 481.684148 195.1 
L 481.684148 13.162 
L 296.70707 13.162 
z
" style="fill: #f6f6f3"/>
   </g>
   <g id="matplotlib.axis_3">
    <g id="xtick_5">
     <g id="line2d_14">
      <g>
       <use xlink:href="#mc0e737d4e2" x="305.115119" y="195.1" style="fill: #6f6f6a; stroke: #6f6f6a; stroke-width: 0.8"/>
      </g>
     </g>
     <g id="text_12">
      <!-- 0 -->
      <g style="fill: #4d4d4a" transform="translate(302.474416 211.144) scale(0.095 -0.095)">
       <use xlink:href="#HelveticaNeue-17"/>
      </g>
     </g>
    </g>
    <g id="xtick_6">
     <g id="line2d_15">
      <g>
       <use xlink:href="#mc0e737d4e2" x="361.168779" y="195.1" style="fill: #6f6f6a; stroke: #6f6f6a; stroke-width: 0.8"/>
      </g>
     </g>
     <g id="text_13">
      <!-- 1000 -->
      <g style="fill: #4d4d4a" transform="translate(350.605967 211.144) scale(0.095 -0.095)">
       <use xlink:href="#HelveticaNeue-18"/>
       <use xlink:href="#HelveticaNeue-17" transform="translate(55.59375 0)"/>
       <use xlink:href="#HelveticaNeue-17" transform="translate(111.1875 0)"/>
       <use xlink:href="#HelveticaNeue-17" transform="translate(166.78125 0)"/>
      </g>
     </g>
    </g>
    <g id="xtick_7">
     <g id="line2d_16">
      <g>
       <use xlink:href="#mc0e737d4e2" x="417.222439" y="195.1" style="fill: #6f6f6a; stroke: #6f6f6a; stroke-width: 0.8"/>
      </g>
     </g>
     <g id="text_14">
      <!-- 2000 -->
      <g style="fill: #4d4d4a" transform="translate(406.659626 211.144) scale(0.095 -0.095)">
       <use xlink:href="#HelveticaNeue-19"/>
       <use xlink:href="#HelveticaNeue-17" transform="translate(55.59375 0)"/>
       <use xlink:href="#HelveticaNeue-17" transform="translate(111.1875 0)"/>
       <use xlink:href="#HelveticaNeue-17" transform="translate(166.78125 0)"/>
      </g>
     </g>
    </g>
    <g id="xtick_8">
     <g id="line2d_17">
      <g>
       <use xlink:href="#mc0e737d4e2" x="473.276099" y="195.1" style="fill: #6f6f6a; stroke: #6f6f6a; stroke-width: 0.8"/>
      </g>
     </g>
     <g id="text_15">
      <!-- 3000 -->
      <g style="fill: #4d4d4a" transform="translate(462.713286 211.144) scale(0.095 -0.095)">
       <use xlink:href="#HelveticaNeue-1a"/>
       <use xlink:href="#HelveticaNeue-17" transform="translate(55.59375 0)"/>
       <use xlink:href="#HelveticaNeue-17" transform="translate(111.1875 0)"/>
       <use xlink:href="#HelveticaNeue-17" transform="translate(166.78125 0)"/>
      </g>
     </g>
    </g>
    <g id="text_16">
     <!-- step -->
     <g style="fill: #4d4d4a" transform="translate(378.984359 228.1635) scale(0.105 -0.105)">
      <use xlink:href="#HelveticaNeue-5a"/>
      <use xlink:href="#HelveticaNeue-5b" transform="translate(50 0)"/>
      <use xlink:href="#HelveticaNeue-4c" transform="translate(81.5 0)"/>
      <use xlink:href="#HelveticaNeue-57" transform="translate(135.203125 0)"/>
     </g>
    </g>
   </g>
   <g id="matplotlib.axis_4">
    <g id="ytick_5">
     <g id="line2d_18">
      <path d="M 296.70707 195.1 
L 481.684148 195.1 
" clip-path="url(#p23ace26f3b)" style="fill: none; stroke: #e9e9e4; stroke-width: 0.8; stroke-linecap: round"/>
     </g>
     <g id="line2d_19">
      <g>
       <use xlink:href="#ma2979b2ba1" x="296.70707" y="195.1" style="fill: #6f6f6a; stroke: #6f6f6a; stroke-width: 0.8"/>
      </g>
     </g>
     <g id="text_17">
      <!-- 0% -->
      <g style="fill: #4d4d4a" transform="translate(274.925664 199.622) scale(0.095 -0.095)">
       <defs>
        <path id="HelveticaNeue-c" d="M 1069 3251 
Q 1069 3398 1088 3561 
Q 1107 3725 1168 3862 
Q 1229 4000 1337 4093 
Q 1446 4186 1626 4186 
Q 1811 4186 1916 4093 
Q 2022 4000 2080 3862 
Q 2138 3725 2154 3561 
Q 2170 3398 2170 3258 
Q 2170 3110 2150 2944 
Q 2131 2778 2070 2640 
Q 2010 2502 1901 2412 
Q 1792 2323 1606 2323 
Q 1427 2323 1321 2416 
Q 1216 2509 1158 2646 
Q 1101 2784 1085 2947 
Q 1069 3110 1069 3251 
z
M 589 3238 
Q 589 2976 643 2745 
Q 698 2515 819 2342 
Q 941 2170 1139 2070 
Q 1338 1971 1626 1971 
Q 1907 1971 2099 2080 
Q 2291 2189 2416 2365 
Q 2541 2541 2595 2774 
Q 2650 3008 2650 3258 
Q 2650 3520 2602 3753 
Q 2554 3987 2435 4160 
Q 2317 4333 2121 4435 
Q 1926 4538 1626 4538 
Q 1331 4538 1132 4432 
Q 934 4326 812 4147 
Q 691 3968 640 3734 
Q 589 3501 589 3238 
z
M 4230 1203 
Q 4230 1350 4249 1513 
Q 4269 1677 4329 1814 
Q 4390 1952 4499 2045 
Q 4608 2138 4787 2138 
Q 4973 2138 5078 2045 
Q 5184 1952 5241 1814 
Q 5299 1677 5315 1513 
Q 5331 1350 5331 1210 
Q 5331 1062 5312 896 
Q 5293 730 5232 592 
Q 5171 454 5062 364 
Q 4954 275 4768 275 
Q 4589 275 4483 368 
Q 4378 461 4320 598 
Q 4262 736 4246 899 
Q 4230 1062 4230 1203 
z
M 3750 1190 
Q 3750 928 3804 697 
Q 3859 467 3980 297 
Q 4102 128 4300 29 
Q 4499 -70 4787 -70 
Q 5069 -70 5261 35 
Q 5453 141 5577 317 
Q 5702 493 5756 726 
Q 5811 960 5811 1210 
Q 5811 1472 5763 1705 
Q 5715 1939 5596 2112 
Q 5478 2285 5283 2387 
Q 5088 2490 4787 2490 
Q 4493 2490 4294 2384 
Q 4096 2278 3974 2099 
Q 3853 1920 3801 1686 
Q 3750 1453 3750 1190 
z
M 4646 4621 
L 1203 -134 
L 1754 -134 
L 5190 4621 
L 4646 4621 
z
" transform="scale(0.015625)"/>
       </defs>
       <use xlink:href="#HelveticaNeue-17"/>
       <use xlink:href="#HelveticaNeue-c" transform="translate(55.59375 0)"/>
      </g>
     </g>
    </g>
    <g id="ytick_6">
     <g id="line2d_20">
      <path d="M 296.70707 159.425882 
L 481.684148 159.425882 
" clip-path="url(#p23ace26f3b)" style="fill: none; stroke: #e9e9e4; stroke-width: 0.8; stroke-linecap: round"/>
     </g>
     <g id="line2d_21">
      <g>
       <use xlink:href="#ma2979b2ba1" x="296.70707" y="159.425882" style="fill: #6f6f6a; stroke: #6f6f6a; stroke-width: 0.8"/>
      </g>
     </g>
     <g id="text_18">
      <!-- 20% -->
      <g style="fill: #4d4d4a" transform="translate(269.644258 163.947882) scale(0.095 -0.095)">
       <use xlink:href="#HelveticaNeue-19"/>
       <use xlink:href="#HelveticaNeue-17" transform="translate(55.59375 0)"/>
       <use xlink:href="#HelveticaNeue-c" transform="translate(111.1875 0)"/>
      </g>
     </g>
    </g>
    <g id="ytick_7">
     <g id="line2d_22">
      <path d="M 296.70707 123.751765 
L 481.684148 123.751765 
" clip-path="url(#p23ace26f3b)" style="fill: none; stroke: #e9e9e4; stroke-width: 0.8; stroke-linecap: round"/>
     </g>
     <g id="line2d_23">
      <g>
       <use xlink:href="#ma2979b2ba1" x="296.70707" y="123.751765" style="fill: #6f6f6a; stroke: #6f6f6a; stroke-width: 0.8"/>
      </g>
     </g>
     <g id="text_19">
      <!-- 40% -->
      <g style="fill: #4d4d4a" transform="translate(269.644258 128.273765) scale(0.095 -0.095)">
       <defs>
        <path id="HelveticaNeue-1b" d="M 2170 1542 
L 646 1542 
L 2157 3763 
L 2170 3763 
L 2170 1542 
z
M 2682 1542 
L 2682 4538 
L 2246 4538 
L 179 1587 
L 179 1062 
L 2170 1062 
L 2170 0 
L 2682 0 
L 2682 1062 
L 3296 1062 
L 3296 1542 
L 2682 1542 
z
" transform="scale(0.015625)"/>
       </defs>
       <use xlink:href="#HelveticaNeue-1b"/>
       <use xlink:href="#HelveticaNeue-17" transform="translate(55.59375 0)"/>
       <use xlink:href="#HelveticaNeue-c" transform="translate(111.1875 0)"/>
      </g>
     </g>
    </g>
    <g id="ytick_8">
     <g id="line2d_24">
      <path d="M 296.70707 88.077647 
L 481.684148 88.077647 
" clip-path="url(#p23ace26f3b)" style="fill: none; stroke: #e9e9e4; stroke-width: 0.8; stroke-linecap: round"/>
     </g>
     <g id="line2d_25">
      <g>
       <use xlink:href="#ma2979b2ba1" x="296.70707" y="88.077647" style="fill: #6f6f6a; stroke: #6f6f6a; stroke-width: 0.8"/>
      </g>
     </g>
     <g id="text_20">
      <!-- 60% -->
      <g style="fill: #4d4d4a" transform="translate(269.644258 92.599647) scale(0.095 -0.095)">
       <use xlink:href="#HelveticaNeue-1d"/>
       <use xlink:href="#HelveticaNeue-17" transform="translate(55.59375 0)"/>
       <use xlink:href="#HelveticaNeue-c" transform="translate(111.1875 0)"/>
      </g>
     </g>
    </g>
    <g id="ytick_9">
     <g id="line2d_26">
      <path d="M 296.70707 52.403529 
L 481.684148 52.403529 
" clip-path="url(#p23ace26f3b)" style="fill: none; stroke: #e9e9e4; stroke-width: 0.8; stroke-linecap: round"/>
     </g>
     <g id="line2d_27">
      <g>
       <use xlink:href="#ma2979b2ba1" x="296.70707" y="52.403529" style="fill: #6f6f6a; stroke: #6f6f6a; stroke-width: 0.8"/>
      </g>
     </g>
     <g id="text_21">
      <!-- 80% -->
      <g style="fill: #4d4d4a" transform="translate(269.644258 56.925529) scale(0.095 -0.095)">
       <defs>
        <path id="HelveticaNeue-1f" d="M 992 3360 
Q 992 3533 1056 3661 
Q 1120 3789 1225 3878 
Q 1331 3968 1478 4013 
Q 1626 4058 1786 4058 
Q 2118 4058 2332 3882 
Q 2547 3706 2547 3360 
Q 2547 3014 2336 2822 
Q 2125 2630 1798 2630 
Q 1632 2630 1485 2675 
Q 1338 2720 1229 2809 
Q 1120 2899 1056 3036 
Q 992 3174 992 3360 
z
M 416 3379 
Q 416 3072 589 2813 
Q 762 2554 1050 2438 
Q 666 2304 461 2006 
Q 256 1709 256 1306 
Q 256 960 374 701 
Q 493 442 701 269 
Q 909 96 1190 13 
Q 1472 -70 1798 -70 
Q 2112 -70 2387 19 
Q 2662 109 2864 285 
Q 3066 461 3184 717 
Q 3302 973 3302 1306 
Q 3302 1728 3104 2019 
Q 2906 2310 2496 2438 
Q 2784 2566 2953 2819 
Q 3123 3072 3123 3379 
Q 3123 3597 3046 3805 
Q 2970 4013 2806 4176 
Q 2643 4339 2380 4438 
Q 2118 4538 1747 4538 
Q 1485 4538 1245 4461 
Q 1005 4384 819 4237 
Q 634 4090 525 3875 
Q 416 3661 416 3379 
z
M 832 1280 
Q 832 1478 905 1638 
Q 979 1798 1110 1913 
Q 1242 2029 1418 2089 
Q 1594 2150 1792 2150 
Q 1984 2150 2153 2083 
Q 2323 2016 2451 1901 
Q 2579 1786 2652 1629 
Q 2726 1472 2726 1286 
Q 2726 1094 2659 934 
Q 2592 774 2467 656 
Q 2342 538 2172 470 
Q 2003 403 1798 403 
Q 1376 403 1104 636 
Q 832 870 832 1280 
z
" transform="scale(0.015625)"/>
       </defs>
       <use xlink:href="#HelveticaNeue-1f"/>
       <use xlink:href="#HelveticaNeue-17" transform="translate(55.59375 0)"/>
       <use xlink:href="#HelveticaNeue-c" transform="translate(111.1875 0)"/>
      </g>
     </g>
    </g>
    <g id="ytick_10">
     <g id="line2d_28">
      <path d="M 296.70707 16.729412 
L 481.684148 16.729412 
" clip-path="url(#p23ace26f3b)" style="fill: none; stroke: #e9e9e4; stroke-width: 0.8; stroke-linecap: round"/>
     </g>
     <g id="line2d_29">
      <g>
       <use xlink:href="#ma2979b2ba1" x="296.70707" y="16.729412" style="fill: #6f6f6a; stroke: #6f6f6a; stroke-width: 0.8"/>
      </g>
     </g>
     <g id="text_22">
      <!-- 100% -->
      <g style="fill: #4d4d4a" transform="translate(264.362852 21.251412) scale(0.095 -0.095)">
       <use xlink:href="#HelveticaNeue-18"/>
       <use xlink:href="#HelveticaNeue-17" transform="translate(55.59375 0)"/>
       <use xlink:href="#HelveticaNeue-17" transform="translate(111.1875 0)"/>
       <use xlink:href="#HelveticaNeue-c" transform="translate(166.78125 0)"/>
      </g>
     </g>
    </g>
    <g id="text_23">
     <!-- validation accuracy -->
     <g style="fill: #4d4d4a" transform="translate(257.126352 149.43932) rotate(-90) scale(0.105 -0.105)">
      <defs>
       <path id="HelveticaNeue-5d" d="M 1901 0 
L 3110 3309 
L 2541 3309 
L 1638 550 
L 1626 550 
L 698 3309 
L 90 3309 
L 1318 0 
L 1901 0 
z
" transform="scale(0.015625)"/>
      </defs>
      <use xlink:href="#HelveticaNeue-5d"/>
      <use xlink:href="#HelveticaNeue-48" transform="translate(50 0)"/>
      <use xlink:href="#HelveticaNeue-53" transform="translate(103.703125 0)"/>
      <use xlink:href="#HelveticaNeue-50" transform="translate(125.90625 0)"/>
      <use xlink:href="#HelveticaNeue-4b" transform="translate(148.109375 0)"/>
      <use xlink:href="#HelveticaNeue-48" transform="translate(207.40625 0)"/>
      <use xlink:href="#HelveticaNeue-5b" transform="translate(261.109375 0)"/>
      <use xlink:href="#HelveticaNeue-50" transform="translate(292.609375 0)"/>
      <use xlink:href="#HelveticaNeue-56" transform="translate(314.8125 0)"/>
      <use xlink:href="#HelveticaNeue-55" transform="translate(372.21875 0)"/>
      <use xlink:href="#HelveticaNeue-3" transform="translate(427.8125 0)"/>
      <use xlink:href="#HelveticaNeue-48" transform="translate(455.609375 0)"/>
      <use xlink:href="#HelveticaNeue-4a" transform="translate(509.3125 0)"/>
      <use xlink:href="#HelveticaNeue-4a" transform="translate(563.015625 0)"/>
      <use xlink:href="#HelveticaNeue-5c" transform="translate(616.71875 0)"/>
      <use xlink:href="#HelveticaNeue-59" transform="translate(672.3125 0)"/>
      <use xlink:href="#HelveticaNeue-48" transform="translate(705.609375 0)"/>
      <use xlink:href="#HelveticaNeue-4a" transform="translate(759.3125 0)"/>
      <use xlink:href="#HelveticaNeue-60" transform="translate(813.015625 0)"/>
     </g>
    </g>
   </g>
   <g id="line2d_30">
    <path d="M 305.115119 95.212471 
L 319.128534 45.268706 
L 333.141949 23.864235 
L 347.155364 23.864235 
L 361.168779 23.864235 
L 375.182194 27.431647 
L 389.195609 23.864235 
L 403.209024 22.080529 
L 417.222439 20.296824 
L 431.235854 18.513118 
L 445.249269 20.296824 
L 459.262684 20.296824 
L 473.276099 18.513118 
" clip-path="url(#p23ace26f3b)" style="fill: none; stroke: #141414; stroke-width: 1.5; stroke-linecap: round"/>
   </g>
   <g id="line2d_31">
    <path d="M 305.115119 118.400647 
L 319.128534 52.403529 
L 333.141949 36.350176 
L 347.155364 38.133882 
L 361.168779 34.566471 
L 375.182194 27.431647 
L 389.195609 27.431647 
L 403.209024 25.647941 
L 417.222439 25.647941 
L 431.235854 23.864235 
L 445.249269 23.864235 
L 459.262684 23.864235 
L 473.276099 23.864235 
" clip-path="url(#p23ace26f3b)" style="fill: none; stroke-dasharray: 1.5,2.25; stroke-dashoffset: 0; stroke: #141414; stroke-width: 1.5"/>
   </g>
   <g id="line2d_32">
    <path d="M 305.115119 157.642176 
L 319.128534 36.350176 
L 333.141949 25.053373 
L 347.155364 25.647941 
L 361.168779 20.296824 
L 375.182194 22.675098 
L 389.195609 20.891392 
L 403.209024 21.485961 
L 417.222439 20.296824 
L 431.235854 19.107686 
L 445.249269 19.107686 
L 459.262684 17.918549 
L 473.276099 17.918549 
" clip-path="url(#p23ace26f3b)" style="fill: none; stroke-dasharray: 6,3; stroke-dashoffset: 0; stroke: #141414; stroke-width: 1.5"/>
   </g>
   <g id="patch_6">
    <path d="M 296.70707 195.1 
L 296.70707 13.162 
" style="fill: none; stroke: #6f6f6a; stroke-width: 0.8; stroke-linejoin: miter; stroke-linecap: square"/>
   </g>
   <g id="patch_7">
    <path d="M 296.70707 195.1 
L 481.684148 195.1 
" style="fill: none; stroke: #6f6f6a; stroke-width: 0.8; stroke-linejoin: miter; stroke-linecap: square"/>
   </g>
   <g id="text_24">
    <!-- vs the true sign -->
    <g style="fill: #4d4d4a" transform="translate(416.471012 140.56885) scale(0.09 -0.09)">
     <use xlink:href="#HelveticaNeue-5d"/>
     <use xlink:href="#HelveticaNeue-5a" transform="translate(50 0)"/>
     <use xlink:href="#HelveticaNeue-3" transform="translate(100 0)"/>
     <use xlink:href="#HelveticaNeue-5b" transform="translate(127.796875 0)"/>
     <use xlink:href="#HelveticaNeue-4f" transform="translate(159.296875 0)"/>
     <use xlink:href="#HelveticaNeue-4c" transform="translate(214.890625 0)"/>
     <use xlink:href="#HelveticaNeue-3" transform="translate(268.59375 0)"/>
     <use xlink:href="#HelveticaNeue-5b" transform="translate(296.390625 0)"/>
     <use xlink:href="#HelveticaNeue-59" transform="translate(327.890625 0)"/>
     <use xlink:href="#HelveticaNeue-5c" transform="translate(361.1875 0)"/>
     <use xlink:href="#HelveticaNeue-4c" transform="translate(416.78125 0)"/>
     <use xlink:href="#HelveticaNeue-3" transform="translate(470.484375 0)"/>
     <use xlink:href="#HelveticaNeue-5a" transform="translate(498.28125 0)"/>
     <use xlink:href="#HelveticaNeue-50" transform="translate(548.28125 0)"/>
     <use xlink:href="#HelveticaNeue-4e" transform="translate(570.484375 0)"/>
     <use xlink:href="#HelveticaNeue-55" transform="translate(627.890625 0)"/>
    </g>
    <!-- solid: 10 terms -->
    <g style="fill: #4d4d4a" transform="translate(418.631012 155.090912) scale(0.09 -0.09)">
     <defs>
      <path id="HelveticaNeue-21" d="M 1242 2598 
L 1242 3309 
L 531 3309 
L 531 2598 
L 1242 2598 
z
M 531 710 
L 531 0 
L 1242 0 
L 1242 710 
L 531 710 
z
" transform="scale(0.015625)"/>
     </defs>
     <use xlink:href="#HelveticaNeue-5a"/>
     <use xlink:href="#HelveticaNeue-56" transform="translate(50 0)"/>
     <use xlink:href="#HelveticaNeue-53" transform="translate(107.40625 0)"/>
     <use xlink:href="#HelveticaNeue-50" transform="translate(129.609375 0)"/>
     <use xlink:href="#HelveticaNeue-4b" transform="translate(151.8125 0)"/>
     <use xlink:href="#HelveticaNeue-21" transform="translate(211.109375 0)"/>
     <use xlink:href="#HelveticaNeue-3" transform="translate(238.90625 0)"/>
     <use xlink:href="#HelveticaNeue-18" transform="translate(266.703125 0)"/>
     <use xlink:href="#HelveticaNeue-17" transform="translate(322.296875 0)"/>
     <use xlink:href="#HelveticaNeue-3" transform="translate(377.890625 0)"/>
     <use xlink:href="#HelveticaNeue-5b" transform="translate(405.6875 0)"/>
     <use xlink:href="#HelveticaNeue-4c" transform="translate(437.1875 0)"/>
     <use xlink:href="#HelveticaNeue-59" transform="translate(490.890625 0)"/>
     <use xlink:href="#HelveticaNeue-54" transform="translate(524.1875 0)"/>
     <use xlink:href="#HelveticaNeue-5a" transform="translate(609.484375 0)"/>
    </g>
    <!-- dotted: 75 terms -->
    <g style="fill: #4d4d4a" transform="translate(411.287575 168.721412) scale(0.09 -0.09)">
     <defs>
      <path id="HelveticaNeue-1e" d="M 3258 3994 
L 3258 4461 
L 320 4461 
L 320 3949 
L 2701 3949 
Q 2342 3571 2032 3123 
Q 1722 2675 1485 2172 
Q 1248 1670 1097 1123 
Q 947 576 909 0 
L 1517 0 
Q 1549 531 1696 1094 
Q 1843 1658 2076 2189 
Q 2310 2720 2611 3187 
Q 2912 3654 3258 3994 
z
" transform="scale(0.015625)"/>
     </defs>
     <use xlink:href="#HelveticaNeue-4b"/>
     <use xlink:href="#HelveticaNeue-56" transform="translate(59.296875 0)"/>
     <use xlink:href="#HelveticaNeue-5b" transform="translate(116.703125 0)"/>
     <use xlink:href="#HelveticaNeue-5b" transform="translate(148.203125 0)"/>
     <use xlink:href="#HelveticaNeue-4c" transform="translate(179.703125 0)"/>
     <use xlink:href="#HelveticaNeue-4b" transform="translate(233.40625 0)"/>
     <use xlink:href="#HelveticaNeue-21" transform="translate(292.703125 0)"/>
     <use xlink:href="#HelveticaNeue-3" transform="translate(320.5 0)"/>
     <use xlink:href="#HelveticaNeue-1e" transform="translate(348.296875 0)"/>
     <use xlink:href="#HelveticaNeue-1c" transform="translate(403.890625 0)"/>
     <use xlink:href="#HelveticaNeue-3" transform="translate(459.484375 0)"/>
     <use xlink:href="#HelveticaNeue-5b" transform="translate(487.28125 0)"/>
     <use xlink:href="#HelveticaNeue-4c" transform="translate(518.78125 0)"/>
     <use xlink:href="#HelveticaNeue-59" transform="translate(572.484375 0)"/>
     <use xlink:href="#HelveticaNeue-54" transform="translate(605.78125 0)"/>
     <use xlink:href="#HelveticaNeue-5a" transform="translate(691.078125 0)"/>
    </g>
    <!-- dashed: real journal states -->
    <g style="fill: #4d4d4a" transform="translate(372.136169 181.514491) scale(0.09 -0.09)">
     <defs>
      <path id="HelveticaNeue-51" d="M 986 3904 
L 986 4570 
L 442 4570 
L 442 3904 
L 986 3904 
z
M 986 -416 
L 986 3309 
L 442 3309 
L 442 -326 
Q 442 -582 378 -681 
Q 314 -781 134 -781 
L 19 -781 
Q -6 -781 -28 -777 
Q -51 -774 -83 -768 
L -83 -1235 
Q 45 -1261 192 -1261 
Q 557 -1261 771 -1059 
Q 986 -858 986 -416 
z
" transform="scale(0.015625)"/>
     </defs>
     <use xlink:href="#HelveticaNeue-4b"/>
     <use xlink:href="#HelveticaNeue-48" transform="translate(59.296875 0)"/>
     <use xlink:href="#HelveticaNeue-5a" transform="translate(113 0)"/>
     <use xlink:href="#HelveticaNeue-4f" transform="translate(163 0)"/>
     <use xlink:href="#HelveticaNeue-4c" transform="translate(218.59375 0)"/>
     <use xlink:href="#HelveticaNeue-4b" transform="translate(272.296875 0)"/>
     <use xlink:href="#HelveticaNeue-21" transform="translate(331.59375 0)"/>
     <use xlink:href="#HelveticaNeue-3" transform="translate(359.390625 0)"/>
     <use xlink:href="#HelveticaNeue-59" transform="translate(387.1875 0)"/>
     <use xlink:href="#HelveticaNeue-4c" transform="translate(418.6875 0)"/>
     <use xlink:href="#HelveticaNeue-48" transform="translate(472.390625 0)"/>
     <use xlink:href="#HelveticaNeue-53" transform="translate(526.09375 0)"/>
     <use xlink:href="#HelveticaNeue-3" transform="translate(548.296875 0)"/>
     <use xlink:href="#HelveticaNeue-51" transform="translate(576.09375 0)"/>
     <use xlink:href="#HelveticaNeue-56" transform="translate(598.296875 0)"/>
     <use xlink:href="#HelveticaNeue-5c" transform="translate(655.703125 0)"/>
     <use xlink:href="#HelveticaNeue-59" transform="translate(711.296875 0)"/>
     <use xlink:href="#HelveticaNeue-55" transform="translate(746.390625 0)"/>
     <use xlink:href="#HelveticaNeue-48" transform="translate(801.984375 0)"/>
     <use xlink:href="#HelveticaNeue-53" transform="translate(855.6875 0)"/>
     <use xlink:href="#HelveticaNeue-3" transform="translate(877.890625 0)"/>
     <use xlink:href="#HelveticaNeue-5a" transform="translate(905.6875 0)"/>
     <use xlink:href="#HelveticaNeue-5b" transform="translate(955.6875 0)"/>
     <use xlink:href="#HelveticaNeue-48" transform="translate(987.1875 0)"/>
     <use xlink:href="#HelveticaNeue-5b" transform="translate(1040.890625 0)"/>
     <use xlink:href="#HelveticaNeue-4c" transform="translate(1072.390625 0)"/>
     <use xlink:href="#HelveticaNeue-5a" transform="translate(1126.09375 0)"/>
    </g>
   </g>
  </g>
 </g>
 <defs>
  <clipPath id="p80ddb0246e">
   <rect x="51.357422" y="13.162" width="184.977077" height="181.938"/>
  </clipPath>
  <clipPath id="p23ace26f3b">
   <rect x="296.70707" y="13.162" width="184.977077" height="181.938"/>
  </clipPath>
 </defs>
</svg>
